<svg width="155" height="120" viewBox="0 0 155 120" fill="none" xmlns="http://www.w3.org/2000/svg">
<path d="M73.468 45.984C74.86 45.984 76.48 46.164 78.328 46.524C80.2 46.884 81.568 47.268 82.432 47.676V55.344H79.012C77.164 51.864 74.62 50.124 71.38 50.124C70.06 50.124 68.848 50.544 67.744 51.384C66.64 52.224 65.764 53.376 65.116 54.84C64.492 56.304 64.18 57.948 64.18 59.772C64.18 61.836 64.492 63.732 65.116 65.46C65.764 67.164 66.736 68.532 68.032 69.564C69.328 70.572 70.936 71.076 72.856 71.076C75.04 71.076 78.148 69.876 82.18 67.476L83.62 69.78L76.996 74.928C75.94 75.24 74.92 75.444 73.936 75.54C72.976 75.66 71.944 75.72 70.84 75.72C68.152 75.72 65.764 75.108 63.676 73.884C61.588 72.66 59.968 70.98 58.816 68.844C57.664 66.684 57.088 64.236 57.088 61.5C57.088 58.692 57.952 56.1 59.68 53.724C61.408 51.324 63.556 49.44 66.124 48.072C68.692 46.68 71.14 45.984 73.468 45.984ZM107.449 75H99.2409V71.868L95.1729 75.072C94.6929 75.264 94.0929 75.36 93.3729 75.36C91.0689 75.36 89.4009 74.796 88.3689 73.668C87.3609 72.54 86.8569 71.184 86.8569 69.6C86.8569 68.664 87.1449 67.752 87.7209 66.864C88.2969 65.952 89.1249 65.112 90.2049 64.344H99.2409V63.732C99.2409 62.412 98.8809 61.44 98.1609 60.816C97.4409 60.192 96.4809 59.88 95.2809 59.88C93.6009 59.88 91.4049 60.54 88.6929 61.86L87.6129 59.808L92.6169 55.776C93.8409 55.416 95.2689 55.236 96.9009 55.236C99.5889 55.236 101.665 55.848 103.129 57.072C104.617 58.296 105.361 60.072 105.361 62.4V71.4L108.601 72.66L107.449 75ZM95.2089 70.536C96.4329 70.536 97.7769 70.032 99.2409 69.024V66.72H93.4449C93.2529 67.008 93.1089 67.284 93.0129 67.548C92.9409 67.788 92.9049 68.064 92.9049 68.376C92.9049 68.976 93.1089 69.48 93.5169 69.888C93.9489 70.296 94.5129 70.5 95.2089 70.5V70.536ZM122.534 60.348C121.67 60.348 120.806 60.732 119.942 61.5V71.22L125.414 72.66L124.262 75H110.618V72.984L113.822 70.284V62.112L110.618 60.096V58.08L118.106 54.912L119.474 58.908L122.75 55.524C123.254 55.332 123.842 55.236 124.514 55.236C125.762 55.236 126.83 55.524 127.718 56.1C128.63 56.676 129.266 57.468 129.626 58.476L126.17 62.796H123.902C123.878 61.932 123.758 61.32 123.542 60.96C123.326 60.576 122.99 60.384 122.534 60.384V60.348ZM143.246 75.072C142.43 75.264 141.458 75.36 140.33 75.36C138.026 75.36 136.334 74.844 135.254 73.812C134.198 72.756 133.67 71.136 133.67 68.952V59.052H129.782V57.144L137.522 48.72H139.79V56.676H146.27V59.052H139.79V68.7C139.79 70.356 140.726 71.184 142.598 71.184C143.078 71.184 143.546 71.112 144.002 70.968C144.482 70.8 145.082 70.524 145.802 70.14L146.882 72.192L143.246 75.072Z" fill="white"/>
<path d="M43.75 44.5385H37.5C37.5 41.1383 36.183 37.8773 33.8388 35.473C31.4946 33.0687 28.3152 31.7179 25 31.7179C21.6848 31.7179 18.5054 33.0687 16.1612 35.473C13.817 37.8773 12.5 41.1383 12.5 44.5385H6.25C4.5924 44.5385 3.00268 45.2138 1.83058 46.416C0.65848 47.6181 0 49.2486 0 50.9487L0 72.3162C0.00330804 75.1487 1.10184 77.8642 3.05462 79.8671C5.00741 81.8699 7.65501 82.9966 10.4167 83H39.5833C42.345 82.9966 44.9926 81.8699 46.9454 79.8671C48.8982 77.8642 49.9967 75.1487 50 72.3162V50.9487C50 49.2486 49.3415 47.6181 48.1694 46.416C46.9973 45.2138 45.4076 44.5385 43.75 44.5385ZM25 35.9915C27.2101 35.9915 29.3298 36.8919 30.8926 38.4948C32.4554 40.0977 33.3333 42.2717 33.3333 44.5385H16.6667C16.6667 42.2717 17.5446 40.0977 19.1074 38.4948C20.6702 36.8919 22.7899 35.9915 25 35.9915ZM45.8333 72.3162C45.8333 74.0163 45.1749 75.6468 44.0028 76.849C42.8306 78.0511 41.2409 78.7265 39.5833 78.7265H10.4167C8.75906 78.7265 7.16935 78.0511 5.99725 76.849C4.82515 75.6468 4.16667 74.0163 4.16667 72.3162V50.9487C4.16667 50.382 4.38616 49.8385 4.77686 49.4378C5.16756 49.0371 5.69747 48.812 6.25 48.812H12.5V53.0855C12.5 53.6522 12.7195 54.1957 13.1102 54.5964C13.5009 54.9971 14.0308 55.2222 14.5833 55.2222C15.1359 55.2222 15.6658 54.9971 16.0565 54.5964C16.4472 54.1957 16.6667 53.6522 16.6667 53.0855V48.812H33.3333V53.0855C33.3333 53.6522 33.5528 54.1957 33.9435 54.5964C34.3342 54.9971 34.8641 55.2222 35.4167 55.2222C35.9692 55.2222 36.4991 54.9971 36.8898 54.5964C37.2805 54.1957 37.5 53.6522 37.5 53.0855V48.812H43.75C44.3025 48.812 44.8324 49.0371 45.2231 49.4378C45.6138 49.8385 45.8333 50.382 45.8333 50.9487V72.3162Z" fill="white"/>
</svg>
