<svg width="408" height="120" viewBox="0 0 408 120" fill="none" xmlns="http://www.w3.org/2000/svg">
<path fill-rule="evenodd" clip-rule="evenodd" d="M56.0657 107.831C62.8003 109.002 116.747 76.7451 70.1099 39.2816C63.0691 33.6257 45.1032 36.5752 25.0096 43.0984C15.7355 46.1086 14.8544 45.6095 10.8461 47.8861H8.09609C7.974 47.5085 -3.85505 42.9797 3.29505 65.7295C3.58025 66.6379 3.80531 67.1463 5.86915 67.2743C5.86915 67.2743 3.68412 79.5375 12.017 82.829C12.017 82.829 15.6408 91.4288 25.0096 94.9324C25.0096 94.9324 40.3349 105.094 56.0657 107.831Z" fill="#85562B" stroke="black" stroke-miterlimit="1.5" stroke-linecap="round" stroke-linejoin="round"/>
<path fill-rule="evenodd" clip-rule="evenodd" d="M5.2056 67.2123C5.2056 67.2123 4.03655 67.2347 3.29484 65.7291C2.49937 64.1142 -0.420988 52.3837 1.99549 49.2445C4.35547 46.1783 6.94508 47.7044 6.94508 47.7044L5.2056 67.2123Z" fill="#5B3A1B" stroke="black" stroke-miterlimit="1.5" stroke-linecap="round" stroke-linejoin="round"/>
<path fill-rule="evenodd" clip-rule="evenodd" d="M25.0096 94.9324C16.0635 91.5867 12.1235 82.8898 12.1235 82.8898L10.0451 61.3296L20.491 60.839C21.0276 63.0436 53.0496 55.8214 55.1581 77.4488C55.4406 80.3515 51.2573 104.753 25.0096 94.9324Z" fill="#5B3A1B" stroke="black" stroke-miterlimit="1.5" stroke-linecap="round" stroke-linejoin="round"/>
<path fill-rule="evenodd" clip-rule="evenodd" d="M17.6116 66.0276L5.06724 64.4856L6.62629 77.0899C7.47278 79.1273 8.49877 81.3029 12.0169 82.829C12.0169 82.829 23.9608 82.0533 17.6116 66.0276Z" fill="#5B3A1B" stroke="black" stroke-miterlimit="1.5" stroke-linecap="round" stroke-linejoin="round"/>
<path fill-rule="evenodd" clip-rule="evenodd" d="M12.8033 67.4426C12.9062 70.2649 13.3527 74.1265 13.1112 75.9087C12.9837 76.8545 12.2201 77.7759 11.359 78.1385C10.4761 78.5095 8.6947 78.4077 7.81813 78.1385C7.07369 77.9086 6.32468 77.2834 6.10053 76.5199C5.59208 74.7882 5.40165 70.1986 4.9579 67.2743" fill="white"/>
<path d="M12.8033 67.4426C12.9062 70.2649 13.3527 74.1265 13.1112 75.9087C12.9837 76.8545 12.2201 77.7759 11.359 78.1385C10.4761 78.5095 8.6947 78.4077 7.81813 78.1385C7.07369 77.9086 6.32468 77.2834 6.10053 76.5199C5.59209 74.7882 5.40165 70.1986 4.9579 67.2743" stroke="black" stroke-miterlimit="1.5" stroke-linecap="round" stroke-linejoin="round"/>
<path fill-rule="evenodd" clip-rule="evenodd" d="M30.8813 49.9084C31.9055 49.8177 33.6313 50.7803 33.7598 53.1195C33.8236 54.2634 34.2491 56.4886 30.8813 57.083C29.8681 57.2615 27.7368 56.439 27.6083 53.6045C27.4862 50.9345 29.2257 50.056 30.8813 49.9084Z" fill="black" stroke="black" stroke-miterlimit="1.5" stroke-linecap="round" stroke-linejoin="round"/>
<path fill-rule="evenodd" clip-rule="evenodd" d="M29.0744 51.7472C29.3138 51.7308 29.7171 51.9047 29.7471 52.3273C29.762 52.534 29.8615 52.936 29.0744 53.0434C28.8376 53.0756 28.3394 52.9271 28.3094 52.415C28.2809 51.9326 28.6874 51.7739 29.0744 51.7472Z" fill="white"/>
<path fill-rule="evenodd" clip-rule="evenodd" d="M62.7866 46.5328C62.7866 46.5328 83.333 46.0066 84.2014 49.6066C85.0688 53.2065 83.846 60.0829 75.012 60.7296C66.1781 61.3773 63.8518 53.9747 62.4713 52.6401" fill="#85562B"/>
<path d="M62.7866 46.5328C62.7866 46.5328 83.333 46.0066 84.2014 49.6066C85.0688 53.2065 83.846 60.0829 75.012 60.7296C66.1781 61.3773 63.8518 53.9747 62.4713 52.6401" stroke="black" stroke-miterlimit="1.5" stroke-linecap="round" stroke-linejoin="round"/>
<path fill-rule="evenodd" clip-rule="evenodd" d="M66.7703 50.7794C69.3727 49.3635 76.5501 49.728 78.0882 51.8317C79.6263 53.9345 79.0012 56.5596 75.0521 57.6558C69.8064 59.1119 64.167 52.1952 66.7703 50.7794Z" fill="#5B3A1B" stroke="black" stroke-miterlimit="1.5" stroke-linecap="round" stroke-linejoin="round"/>
<path fill-rule="evenodd" clip-rule="evenodd" d="M8.09603 47.8861C8.09603 47.8861 25.4077 48.0954 20.5912 62.2866C20.0755 63.8071 17.9433 65.9146 17.6116 66.0276C15.2999 67.7753 11.975 69.8257 9.01998 68.5612C7.22129 67.7921 5.63856 67.2912 5.63856 67.2912C5.63856 67.2912 3.71596 63.052 4.64993 57.4812" fill="#5B3A1B"/>
<path d="M8.09603 47.8861C8.09603 47.8861 25.4077 48.0954 20.5912 62.2866C20.0755 63.8071 17.9433 65.9146 17.6116 66.0276C15.2999 67.7753 11.975 69.8257 9.01998 68.5612C7.22129 67.7921 5.63856 67.2912 5.63856 67.2912C5.63856 67.2912 3.71596 63.052 4.64993 57.4812" stroke="black" stroke-miterlimit="1.5" stroke-linecap="round" stroke-linejoin="round"/>
<path fill-rule="evenodd" clip-rule="evenodd" d="M4.72264 47.6591C5.78535 47.8694 7.76203 47.6507 8.4922 50.6347C9.02141 52.7982 6.84592 56.8635 4.72264 57.4869C4.72264 57.4869 -0.588079 56.9804 2.11376 49.3759C2.31257 48.817 3.76005 47.4694 4.72264 47.6591Z" fill="black" stroke="black" stroke-miterlimit="1.5" stroke-linecap="round" stroke-linejoin="round"/>
<path d="M36.8379 49.8747C32.0177 47.2181 29.2444 47.8564 29.2444 47.8564" stroke="black" stroke-miterlimit="1.5" stroke-linecap="round" stroke-linejoin="round"/>
<path fill-rule="evenodd" clip-rule="evenodd" d="M30.2514 17.8585C30.2514 17.8585 30.4974 17.7604 24.8936 19.5799C21.9815 20.5257 22.2521 30.2778 22.2521 30.2778" fill="#F6CB4E"/>
<path d="M30.2514 17.8585C30.2514 17.8585 30.4974 17.7604 24.8936 19.5799C21.9815 20.5257 22.2521 30.2778 22.2521 30.2778" stroke="black" stroke-miterlimit="1.5" stroke-linecap="round" stroke-linejoin="round"/>
<path fill-rule="evenodd" clip-rule="evenodd" d="M11.8755 41.7578L20.8453 37.7962C21.5751 7.87557 73.5813 -12.1753 82.9666 36.6738C84.7798 46.1082 88.1786 50.9314 79.8348 53.4799C79.8348 53.4799 70.578 53.6799 66.761 51.4174C48.4607 40.5681 14.9326 44.7007 11.8755 41.7578Z" fill="#F6CB4E" stroke="black" stroke-miterlimit="1.5" stroke-linecap="round" stroke-linejoin="round"/>
<path d="M84.5238 43.3708C84.5238 43.3708 81.0038 46.2277 85.0012 49.4258" stroke="black" stroke-miterlimit="1.5" stroke-linecap="round" stroke-linejoin="round"/>
<mask id="path-20-inside-1_39_43" fill="white">
<path d="M68.1069 47.766L68.1929 46.312L68.765 46.4201C68.8702 46.44 68.9569 46.4724 69.0253 46.5174C69.0936 46.5623 69.1438 46.6163 69.1759 46.6793C69.2079 46.7419 69.2218 46.8096 69.2175 46.8825C69.2141 46.9392 69.2 46.9871 69.1751 47.0259C69.1503 47.0643 69.1175 47.0935 69.0768 47.1136C69.0366 47.1333 68.9913 47.1441 68.9408 47.1461L68.94 47.1603C68.9943 47.1729 69.0443 47.1981 69.09 47.236C69.1362 47.2739 69.1727 47.3217 69.1994 47.3794C69.2261 47.4366 69.2374 47.5009 69.2331 47.5724C69.2286 47.6495 69.2057 47.7148 69.1644 47.7683C69.1236 47.8214 69.0657 47.8585 68.9906 47.8798C68.9155 47.901 68.8245 47.9015 68.7175 47.8813L68.1069 47.766ZM68.4239 47.5717L68.6702 47.6183C68.7544 47.6342 68.8168 47.6294 68.8573 47.6041C68.8979 47.5782 68.9198 47.5379 68.923 47.483C68.9254 47.4427 68.918 47.4054 68.9007 47.3711C68.8835 47.3367 68.8577 47.3074 68.8234 47.2832C68.7895 47.2591 68.7484 47.2425 68.7 47.2334L68.4467 47.1855L68.4239 47.5717ZM68.459 46.9775L68.683 47.0198C68.7244 47.0276 68.7616 47.0273 68.7946 47.0186C68.828 47.0096 68.8549 46.9932 68.8751 46.9692C68.8958 46.9454 68.9073 46.9143 68.9095 46.876C68.9126 46.8234 68.8968 46.7776 68.8619 46.7385C68.8275 46.6994 68.7769 46.6736 68.7099 46.6609L68.4803 46.6176L68.459 46.9775ZM69.8876 48.1238C69.7773 48.103 69.6838 48.0624 69.6069 48.0019C69.5306 47.9411 69.4734 47.8647 69.4356 47.7729C69.3978 47.6805 69.3823 47.5769 69.3891 47.4619C69.3957 47.3497 69.4229 47.2553 69.4707 47.1787C69.5185 47.102 69.5827 47.0474 69.6632 47.0147C69.7441 46.9822 69.8371 46.9758 69.9423 46.9957C70.013 47.009 70.0781 47.033 70.1377 47.0677C70.1977 47.1021 70.2492 47.1465 70.2921 47.201C70.3354 47.2556 70.3678 47.3201 70.3893 47.3945C70.4108 47.4684 70.4188 47.5518 70.4133 47.6446L70.4084 47.7276L69.5034 47.5567L69.5145 47.3693L70.1397 47.4874C70.1423 47.4438 70.1352 47.4035 70.1186 47.3664C70.102 47.3292 70.0777 47.2981 70.0458 47.2729C70.0144 47.2474 69.9771 47.2305 69.9338 47.2223C69.8887 47.2138 69.8481 47.2169 69.8119 47.2316C69.7763 47.2459 69.7476 47.269 69.726 47.3008C69.7044 47.3321 69.6921 47.3693 69.689 47.4123L69.6785 47.5905C69.6753 47.6444 69.6823 47.6929 69.6995 47.7359C69.7172 47.7789 69.7436 47.8145 69.7786 47.8427C69.8136 47.8708 69.856 47.8896 69.9058 47.899C69.9388 47.9052 69.9693 47.9062 69.9974 47.9019C70.0254 47.8977 70.0497 47.8879 70.0703 47.8727C70.091 47.8574 70.1073 47.837 70.1191 47.8115L70.3929 47.8819C70.375 47.9465 70.3429 47.9998 70.2967 48.0418C70.251 48.0834 70.1933 48.1117 70.1238 48.1268C70.0547 48.1415 69.976 48.1405 69.8876 48.1238ZM70.8791 48.3104C70.8108 48.2975 70.7505 48.2739 70.6985 48.2397C70.6464 48.205 70.6062 48.1608 70.5779 48.1071C70.55 48.053 70.5382 47.99 70.5425 47.9181C70.5461 47.8575 70.56 47.8087 70.5843 47.7716C70.6086 47.7346 70.6403 47.7071 70.6795 47.6891C70.7187 47.6711 70.7626 47.6603 70.8113 47.6566C70.8604 47.6529 70.9116 47.6535 70.965 47.6583C71.0277 47.6635 71.0783 47.6668 71.1168 47.6683C71.1553 47.6694 71.1835 47.6656 71.2014 47.657C71.2193 47.6484 71.229 47.6326 71.2303 47.6094L71.2306 47.6051C71.2332 47.5601 71.2213 47.5227 71.1949 47.4928C71.1689 47.463 71.1305 47.4434 71.0798 47.4338C71.0263 47.4237 70.9831 47.4277 70.95 47.4459C70.917 47.4636 70.8943 47.4894 70.8819 47.5235L70.6083 47.4488C70.6262 47.3852 70.657 47.3331 70.7008 47.2926C70.7446 47.2515 70.7997 47.2241 70.8659 47.2103C70.9325 47.1961 71.0087 47.1971 71.0943 47.2133C71.1538 47.2245 71.2104 47.2424 71.264 47.2668C71.318 47.2914 71.3653 47.3226 71.4059 47.3604C71.4469 47.3983 71.4784 47.443 71.5003 47.4945C71.5222 47.5456 71.5312 47.6035 71.5274 47.6683L71.4839 48.4038L71.202 48.3506L71.211 48.1994L71.2026 48.1978C71.1834 48.2286 71.1586 48.2543 71.1282 48.2749C71.0978 48.295 71.062 48.3086 71.0207 48.3156C70.9793 48.3222 70.9322 48.3204 70.8791 48.3104ZM70.9766 48.1178C71.0203 48.126 71.0595 48.1246 71.094 48.1134C71.1285 48.1017 71.1563 48.0826 71.1771 48.0559C71.198 48.0292 71.2095 47.9967 71.2118 47.9583L71.2187 47.8426C71.209 47.847 71.1959 47.8503 71.1793 47.8524C71.1632 47.8541 71.145 47.8553 71.1247 47.8557C71.1045 47.8558 71.0843 47.8555 71.0641 47.8551C71.0439 47.8541 71.0256 47.8533 71.0092 47.8526C70.974 47.8512 70.9431 47.8537 70.9163 47.8602C70.8896 47.8666 70.8685 47.8782 70.8529 47.8948C70.8374 47.9111 70.8288 47.9334 70.8271 47.9618C70.8246 48.0029 70.8374 48.0372 70.8655 48.0645C70.894 48.0914 70.931 48.1092 70.9766 48.1178ZM71.942 48.4904L71.6191 46.9592L71.9491 47.0215L72.1259 48.0764L72.1378 48.0787L72.4585 47.1177L72.7411 47.1711L72.9415 48.2326L72.9541 48.235L73.2504 47.2673L73.5805 47.3297L73.0856 48.7064L72.7912 48.6507L72.5753 47.6488L72.5641 47.6467L72.2365 48.546L71.942 48.4904ZM74.0185 48.9041C73.9101 48.8836 73.8178 48.8425 73.7415 48.7807C73.6657 48.7185 73.6088 48.6413 73.571 48.549C73.5332 48.4562 73.5176 48.3539 73.5242 48.2422C73.5309 48.1296 73.5581 48.0352 73.6059 47.959C73.6537 47.8824 73.7183 47.828 73.7997 47.796C73.8816 47.7637 73.9767 47.7577 74.0851 47.7782C74.1935 47.7986 74.2856 47.84 74.3614 47.9021C74.4377 47.9639 74.4947 48.0412 74.5325 48.134C74.5703 48.2264 74.5859 48.3288 74.5793 48.4415C74.5727 48.5532 74.5455 48.6473 74.4977 48.724C74.4499 48.8001 74.3851 48.8544 74.3032 48.8868C74.2218 48.9188 74.1269 48.9246 74.0185 48.9041ZM74.0338 48.6701C74.0831 48.6794 74.1251 48.673 74.1598 48.6508C74.1945 48.6282 74.2217 48.5936 74.2414 48.5471C74.2616 48.5006 74.2735 48.4457 74.2773 48.3823C74.281 48.3189 74.2757 48.2607 74.2615 48.2077C74.2477 48.1549 74.2251 48.1109 74.1938 48.0758C74.1625 48.0407 74.1221 48.0185 74.0728 48.0092C74.0231 47.9998 73.9803 48.0063 73.9447 48.0287C73.9095 48.0513 73.8818 48.0858 73.8617 48.1322C73.842 48.1787 73.8303 48.2337 73.8265 48.2971C73.8228 48.3606 73.8278 48.4187 73.8416 48.4716C73.8559 48.5245 73.8789 48.5686 73.9107 48.6038C73.943 48.6386 73.984 48.6607 74.0338 48.6701ZM74.7406 49.019L74.805 47.9285L75.0932 47.9829L75.082 48.1732L75.0931 48.1753C75.1167 48.1113 75.1525 48.0664 75.2006 48.0405C75.2487 48.0142 75.3028 48.0067 75.3628 48.0181C75.3777 48.0209 75.3936 48.0249 75.4107 48.03C75.4278 48.0351 75.4428 48.0406 75.4556 48.0464L75.4398 48.3147C75.4261 48.3078 75.407 48.3004 75.3825 48.2924C75.3581 48.2845 75.3356 48.2785 75.3151 48.2747C75.2714 48.2664 75.2318 48.2687 75.1962 48.2816C75.1611 48.2942 75.1326 48.3156 75.1106 48.3459C75.089 48.3762 75.0769 48.4137 75.0743 48.4582L75.0378 49.0751L74.7406 49.019ZM75.8325 48.9079L75.8546 48.5453L75.8979 48.5534L76.2656 48.2044L76.6068 48.2688L76.1132 48.7298L76.0427 48.7165L75.8325 48.9079ZM75.5446 49.1708L75.6305 47.7169L75.9278 47.773L75.8418 49.227L75.5446 49.1708ZM76.2144 49.2973L75.9271 48.7628L76.1379 48.5866L76.5626 49.3631L76.2144 49.2973ZM77.1312 49.492C77.021 49.4712 76.9274 49.4306 76.8506 49.3701C76.7742 49.3093 76.7171 49.2329 76.6793 49.1411C76.6415 49.0487 76.6259 48.9451 76.6327 48.8301C76.6394 48.7179 76.6666 48.6235 76.7144 48.5469C76.7622 48.4702 76.8263 48.4156 76.9068 48.3829C76.9878 48.3504 77.0808 48.344 77.1859 48.3639C77.2566 48.3772 77.3218 48.4012 77.3814 48.4359C77.4414 48.4703 77.4929 48.5147 77.5358 48.5692C77.5791 48.6238 77.6115 48.6883 77.633 48.7627C77.6545 48.8366 77.6625 48.92 77.657 49.0128L77.6521 49.0958L76.7471 48.9249L76.7582 48.7375L77.3834 48.8556C77.3859 48.812 77.3789 48.7717 77.3623 48.7346C77.3457 48.6974 77.3214 48.6663 77.2895 48.6411C77.2581 48.6156 77.2207 48.5987 77.1775 48.5905C77.1324 48.582 77.0917 48.5851 77.0556 48.5998C77.0199 48.6141 76.9913 48.6372 76.9696 48.669C76.948 48.7003 76.9357 48.7375 76.9327 48.7805L76.9222 48.9587C76.919 49.0126 76.926 49.0611 76.9432 49.1041C76.9609 49.1471 76.9873 49.1827 77.0223 49.2109C77.0573 49.239 77.0997 49.2578 77.1495 49.2672C77.1825 49.2734 77.213 49.2744 77.241 49.2701C77.269 49.2659 77.2934 49.2561 77.314 49.2409C77.3347 49.2256 77.3509 49.2052 77.3628 49.1797L77.6366 49.2501C77.6187 49.3147 77.5866 49.368 77.5404 49.41C77.4946 49.4516 77.437 49.4799 77.3674 49.495C77.2984 49.5097 77.2196 49.5087 77.1312 49.492ZM77.8184 49.6003L77.8829 48.5099L78.171 48.5643L78.1598 48.7545L78.171 48.7567C78.1945 48.6927 78.2303 48.6477 78.2784 48.6219C78.3265 48.5956 78.3806 48.5881 78.4406 48.5994C78.4555 48.6022 78.4715 48.6062 78.4886 48.6113C78.5057 48.6165 78.5207 48.6219 78.5335 48.6277L78.5176 48.8961C78.5039 48.8892 78.4848 48.8817 78.4604 48.8738C78.4359 48.8658 78.4135 48.8599 78.393 48.856C78.3493 48.8478 78.3096 48.8501 78.274 48.863C78.239 48.8755 78.2104 48.8969 78.1884 48.9272C78.1668 48.9576 78.1548 48.995 78.1521 49.0395L78.1157 49.6564L77.8184 49.6003ZM79.5602 49.1411L79.2871 49.1067C79.2838 49.0822 79.2751 49.059 79.2609 49.0372C79.2467 49.0149 79.2273 48.9957 79.2029 48.9796C79.1789 48.9631 79.1497 48.9516 79.1153 48.9451C79.0693 48.9364 79.0298 48.939 78.997 48.9529C78.9643 48.9663 78.9469 48.9894 78.945 49.022C78.9434 49.048 78.9524 49.072 78.9718 49.0938C78.9912 49.1157 79.0254 49.1368 79.0746 49.157L79.2662 49.2334C79.3691 49.2749 79.4447 49.3246 79.493 49.3825C79.5414 49.4405 79.5632 49.5087 79.5585 49.5873C79.5543 49.6588 79.5299 49.7176 79.4853 49.7637C79.4412 49.8099 79.3824 49.8414 79.309 49.8582C79.2361 49.8745 79.1531 49.8739 79.06 49.8564C78.9182 49.8296 78.8069 49.7782 78.7263 49.7021C78.6461 49.6258 78.6019 49.5341 78.5936 49.4273L78.8869 49.4669C78.8932 49.5126 78.9126 49.5502 78.9452 49.5798C78.9778 49.609 79.0206 49.6285 79.0736 49.6385C79.1257 49.6484 79.1682 49.6461 79.201 49.6317C79.2344 49.617 79.2522 49.5933 79.2546 49.5607C79.2558 49.5332 79.2457 49.5086 79.2244 49.4868C79.2031 49.4646 79.1695 49.4444 79.1236 49.4262L78.9402 49.3535C78.8368 49.3124 78.7611 49.2608 78.713 49.1986C78.6654 49.1365 78.644 49.0647 78.6488 48.9833C78.6529 48.9133 78.6751 48.8564 78.7153 48.8128C78.756 48.7693 78.8111 48.7402 78.8806 48.7256C78.9507 48.7111 79.0315 48.7125 79.1231 48.7298C79.2585 48.7553 79.3633 48.8046 79.4375 48.8774C79.5122 48.9504 79.5531 49.0383 79.5602 49.1411Z"/>
</mask>
<path d="M68.1069 47.766L68.1929 46.312L68.765 46.4201C68.8702 46.44 68.9569 46.4724 69.0253 46.5174C69.0936 46.5623 69.1438 46.6163 69.1759 46.6793C69.2079 46.7419 69.2218 46.8096 69.2175 46.8825C69.2141 46.9392 69.2 46.9871 69.1751 47.0259C69.1503 47.0643 69.1175 47.0935 69.0768 47.1136C69.0366 47.1333 68.9913 47.1441 68.9408 47.1461L68.94 47.1603C68.9943 47.1729 69.0443 47.1981 69.09 47.236C69.1362 47.2739 69.1727 47.3217 69.1994 47.3794C69.2261 47.4366 69.2374 47.5009 69.2331 47.5724C69.2286 47.6495 69.2057 47.7148 69.1644 47.7683C69.1236 47.8214 69.0657 47.8585 68.9906 47.8798C68.9155 47.901 68.8245 47.9015 68.7175 47.8813L68.1069 47.766ZM68.4239 47.5717L68.6702 47.6183C68.7544 47.6342 68.8168 47.6294 68.8573 47.6041C68.8979 47.5782 68.9198 47.5379 68.923 47.483C68.9254 47.4427 68.918 47.4054 68.9007 47.3711C68.8835 47.3367 68.8577 47.3074 68.8234 47.2832C68.7895 47.2591 68.7484 47.2425 68.7 47.2334L68.4467 47.1855L68.4239 47.5717ZM68.459 46.9775L68.683 47.0198C68.7244 47.0276 68.7616 47.0273 68.7946 47.0186C68.828 47.0096 68.8549 46.9932 68.8751 46.9692C68.8958 46.9454 68.9073 46.9143 68.9095 46.876C68.9126 46.8234 68.8968 46.7776 68.8619 46.7385C68.8275 46.6994 68.7769 46.6736 68.7099 46.6609L68.4803 46.6176L68.459 46.9775ZM69.8876 48.1238C69.7773 48.103 69.6838 48.0624 69.6069 48.0019C69.5306 47.9411 69.4734 47.8647 69.4356 47.7729C69.3978 47.6805 69.3823 47.5769 69.3891 47.4619C69.3957 47.3497 69.4229 47.2553 69.4707 47.1787C69.5185 47.102 69.5827 47.0474 69.6632 47.0147C69.7441 46.9822 69.8371 46.9758 69.9423 46.9957C70.013 47.009 70.0781 47.033 70.1377 47.0677C70.1977 47.1021 70.2492 47.1465 70.2921 47.201C70.3354 47.2556 70.3678 47.3201 70.3893 47.3945C70.4108 47.4684 70.4188 47.5518 70.4133 47.6446L70.4084 47.7276L69.5034 47.5567L69.5145 47.3693L70.1397 47.4874C70.1423 47.4438 70.1352 47.4035 70.1186 47.3664C70.102 47.3292 70.0777 47.2981 70.0458 47.2729C70.0144 47.2474 69.9771 47.2305 69.9338 47.2223C69.8887 47.2138 69.8481 47.2169 69.8119 47.2316C69.7763 47.2459 69.7476 47.269 69.726 47.3008C69.7044 47.3321 69.6921 47.3693 69.689 47.4123L69.6785 47.5905C69.6753 47.6444 69.6823 47.6929 69.6995 47.7359C69.7172 47.7789 69.7436 47.8145 69.7786 47.8427C69.8136 47.8708 69.856 47.8896 69.9058 47.899C69.9388 47.9052 69.9693 47.9062 69.9974 47.9019C70.0254 47.8977 70.0497 47.8879 70.0703 47.8727C70.091 47.8574 70.1073 47.837 70.1191 47.8115L70.3929 47.8819C70.375 47.9465 70.3429 47.9998 70.2967 48.0418C70.251 48.0834 70.1933 48.1117 70.1238 48.1268C70.0547 48.1415 69.976 48.1405 69.8876 48.1238ZM70.8791 48.3104C70.8108 48.2975 70.7505 48.2739 70.6985 48.2397C70.6464 48.205 70.6062 48.1608 70.5779 48.1071C70.55 48.053 70.5382 47.99 70.5425 47.9181C70.5461 47.8575 70.56 47.8087 70.5843 47.7716C70.6086 47.7346 70.6403 47.7071 70.6795 47.6891C70.7187 47.6711 70.7626 47.6603 70.8113 47.6566C70.8604 47.6529 70.9116 47.6535 70.965 47.6583C71.0277 47.6635 71.0783 47.6668 71.1168 47.6683C71.1553 47.6694 71.1835 47.6656 71.2014 47.657C71.2193 47.6484 71.229 47.6326 71.2303 47.6094L71.2306 47.6051C71.2332 47.5601 71.2213 47.5227 71.1949 47.4928C71.1689 47.463 71.1305 47.4434 71.0798 47.4338C71.0263 47.4237 70.9831 47.4277 70.95 47.4459C70.917 47.4636 70.8943 47.4894 70.8819 47.5235L70.6083 47.4488C70.6262 47.3852 70.657 47.3331 70.7008 47.2926C70.7446 47.2515 70.7997 47.2241 70.8659 47.2103C70.9325 47.1961 71.0087 47.1971 71.0943 47.2133C71.1538 47.2245 71.2104 47.2424 71.264 47.2668C71.318 47.2914 71.3653 47.3226 71.4059 47.3604C71.4469 47.3983 71.4784 47.443 71.5003 47.4945C71.5222 47.5456 71.5312 47.6035 71.5274 47.6683L71.4839 48.4038L71.202 48.3506L71.211 48.1994L71.2026 48.1978C71.1834 48.2286 71.1586 48.2543 71.1282 48.2749C71.0978 48.295 71.062 48.3086 71.0207 48.3156C70.9793 48.3222 70.9322 48.3204 70.8791 48.3104ZM70.9766 48.1178C71.0203 48.126 71.0595 48.1246 71.094 48.1134C71.1285 48.1017 71.1563 48.0826 71.1771 48.0559C71.198 48.0292 71.2095 47.9967 71.2118 47.9583L71.2187 47.8426C71.209 47.847 71.1959 47.8503 71.1793 47.8524C71.1632 47.8541 71.145 47.8553 71.1247 47.8557C71.1045 47.8558 71.0843 47.8555 71.0641 47.8551C71.0439 47.8541 71.0256 47.8533 71.0092 47.8526C70.974 47.8512 70.9431 47.8537 70.9163 47.8602C70.8896 47.8666 70.8685 47.8782 70.8529 47.8948C70.8374 47.9111 70.8288 47.9334 70.8271 47.9618C70.8246 48.0029 70.8374 48.0372 70.8655 48.0645C70.894 48.0914 70.931 48.1092 70.9766 48.1178ZM71.942 48.4904L71.6191 46.9592L71.9491 47.0215L72.1259 48.0764L72.1378 48.0787L72.4585 47.1177L72.7411 47.1711L72.9415 48.2326L72.9541 48.235L73.2504 47.2673L73.5805 47.3297L73.0856 48.7064L72.7912 48.6507L72.5753 47.6488L72.5641 47.6467L72.2365 48.546L71.942 48.4904ZM74.0185 48.9041C73.9101 48.8836 73.8178 48.8425 73.7415 48.7807C73.6657 48.7185 73.6088 48.6413 73.571 48.549C73.5332 48.4562 73.5176 48.3539 73.5242 48.2422C73.5309 48.1296 73.5581 48.0352 73.6059 47.959C73.6537 47.8824 73.7183 47.828 73.7997 47.796C73.8816 47.7637 73.9767 47.7577 74.0851 47.7782C74.1935 47.7986 74.2856 47.84 74.3614 47.9021C74.4377 47.9639 74.4947 48.0412 74.5325 48.134C74.5703 48.2264 74.5859 48.3288 74.5793 48.4415C74.5727 48.5532 74.5455 48.6473 74.4977 48.724C74.4499 48.8001 74.3851 48.8544 74.3032 48.8868C74.2218 48.9188 74.1269 48.9246 74.0185 48.9041ZM74.0338 48.6701C74.0831 48.6794 74.1251 48.673 74.1598 48.6508C74.1945 48.6282 74.2217 48.5936 74.2414 48.5471C74.2616 48.5006 74.2735 48.4457 74.2773 48.3823C74.281 48.3189 74.2757 48.2607 74.2615 48.2077C74.2477 48.1549 74.2251 48.1109 74.1938 48.0758C74.1625 48.0407 74.1221 48.0185 74.0728 48.0092C74.0231 47.9998 73.9803 48.0063 73.9447 48.0287C73.9095 48.0513 73.8818 48.0858 73.8617 48.1322C73.842 48.1787 73.8303 48.2337 73.8265 48.2971C73.8228 48.3606 73.8278 48.4187 73.8416 48.4716C73.8559 48.5245 73.8789 48.5686 73.9107 48.6038C73.943 48.6386 73.984 48.6607 74.0338 48.6701ZM74.7406 49.019L74.805 47.9285L75.0932 47.9829L75.082 48.1732L75.0931 48.1753C75.1167 48.1113 75.1525 48.0664 75.2006 48.0405C75.2487 48.0142 75.3028 48.0067 75.3628 48.0181C75.3777 48.0209 75.3936 48.0249 75.4107 48.03C75.4278 48.0351 75.4428 48.0406 75.4556 48.0464L75.4398 48.3147C75.4261 48.3078 75.407 48.3004 75.3825 48.2924C75.3581 48.2845 75.3356 48.2785 75.3151 48.2747C75.2714 48.2664 75.2318 48.2687 75.1962 48.2816C75.1611 48.2942 75.1326 48.3156 75.1106 48.3459C75.089 48.3762 75.0769 48.4137 75.0743 48.4582L75.0378 49.0751L74.7406 49.019ZM75.8325 48.9079L75.8546 48.5453L75.8979 48.5534L76.2656 48.2044L76.6068 48.2688L76.1132 48.7298L76.0427 48.7165L75.8325 48.9079ZM75.5446 49.1708L75.6305 47.7169L75.9278 47.773L75.8418 49.227L75.5446 49.1708ZM76.2144 49.2973L75.9271 48.7628L76.1379 48.5866L76.5626 49.3631L76.2144 49.2973ZM77.1312 49.492C77.021 49.4712 76.9274 49.4306 76.8506 49.3701C76.7742 49.3093 76.7171 49.2329 76.6793 49.1411C76.6415 49.0487 76.6259 48.9451 76.6327 48.8301C76.6394 48.7179 76.6666 48.6235 76.7144 48.5469C76.7622 48.4702 76.8263 48.4156 76.9068 48.3829C76.9878 48.3504 77.0808 48.344 77.1859 48.3639C77.2566 48.3772 77.3218 48.4012 77.3814 48.4359C77.4414 48.4703 77.4929 48.5147 77.5358 48.5692C77.5791 48.6238 77.6115 48.6883 77.633 48.7627C77.6545 48.8366 77.6625 48.92 77.657 49.0128L77.6521 49.0958L76.7471 48.9249L76.7582 48.7375L77.3834 48.8556C77.3859 48.812 77.3789 48.7717 77.3623 48.7346C77.3457 48.6974 77.3214 48.6663 77.2895 48.6411C77.2581 48.6156 77.2207 48.5987 77.1775 48.5905C77.1324 48.582 77.0917 48.5851 77.0556 48.5998C77.0199 48.6141 76.9913 48.6372 76.9696 48.669C76.948 48.7003 76.9357 48.7375 76.9327 48.7805L76.9222 48.9587C76.919 49.0126 76.926 49.0611 76.9432 49.1041C76.9609 49.1471 76.9873 49.1827 77.0223 49.2109C77.0573 49.239 77.0997 49.2578 77.1495 49.2672C77.1825 49.2734 77.213 49.2744 77.241 49.2701C77.269 49.2659 77.2934 49.2561 77.314 49.2409C77.3347 49.2256 77.3509 49.2052 77.3628 49.1797L77.6366 49.2501C77.6187 49.3147 77.5866 49.368 77.5404 49.41C77.4946 49.4516 77.437 49.4799 77.3674 49.495C77.2984 49.5097 77.2196 49.5087 77.1312 49.492ZM77.8184 49.6003L77.8829 48.5099L78.171 48.5643L78.1598 48.7545L78.171 48.7567C78.1945 48.6927 78.2303 48.6477 78.2784 48.6219C78.3265 48.5956 78.3806 48.5881 78.4406 48.5994C78.4555 48.6022 78.4715 48.6062 78.4886 48.6113C78.5057 48.6165 78.5207 48.6219 78.5335 48.6277L78.5176 48.8961C78.5039 48.8892 78.4848 48.8817 78.4604 48.8738C78.4359 48.8658 78.4135 48.8599 78.393 48.856C78.3493 48.8478 78.3096 48.8501 78.274 48.863C78.239 48.8755 78.2104 48.8969 78.1884 48.9272C78.1668 48.9576 78.1548 48.995 78.1521 49.0395L78.1157 49.6564L77.8184 49.6003ZM79.5602 49.1411L79.2871 49.1067C79.2838 49.0822 79.2751 49.059 79.2609 49.0372C79.2467 49.0149 79.2273 48.9957 79.2029 48.9796C79.1789 48.9631 79.1497 48.9516 79.1153 48.9451C79.0693 48.9364 79.0298 48.939 78.997 48.9529C78.9643 48.9663 78.9469 48.9894 78.945 49.022C78.9434 49.048 78.9524 49.072 78.9718 49.0938C78.9912 49.1157 79.0254 49.1368 79.0746 49.157L79.2662 49.2334C79.3691 49.2749 79.4447 49.3246 79.493 49.3825C79.5414 49.4405 79.5632 49.5087 79.5585 49.5873C79.5543 49.6588 79.5299 49.7176 79.4853 49.7637C79.4412 49.8099 79.3824 49.8414 79.309 49.8582C79.2361 49.8745 79.1531 49.8739 79.06 49.8564C78.9182 49.8296 78.8069 49.7782 78.7263 49.7021C78.6461 49.6258 78.6019 49.5341 78.5936 49.4273L78.8869 49.4669C78.8932 49.5126 78.9126 49.5502 78.9452 49.5798C78.9778 49.609 79.0206 49.6285 79.0736 49.6385C79.1257 49.6484 79.1682 49.6461 79.201 49.6317C79.2344 49.617 79.2522 49.5933 79.2546 49.5607C79.2558 49.5332 79.2457 49.5086 79.2244 49.4868C79.2031 49.4646 79.1695 49.4444 79.1236 49.4262L78.9402 49.3535C78.8368 49.3124 78.7611 49.2608 78.713 49.1986C78.6654 49.1365 78.644 49.0647 78.6488 48.9833C78.6529 48.9133 78.6751 48.8564 78.7153 48.8128C78.756 48.7693 78.8111 48.7402 78.8806 48.7256C78.9507 48.7111 79.0315 48.7125 79.1231 48.7298C79.2585 48.7553 79.3633 48.8046 79.4375 48.8774C79.5122 48.9504 79.5531 49.0383 79.5602 49.1411Z" fill="black"/>
<path d="M68.1069 47.766L67.1245 47.5804L67.0654 48.58L68.0478 48.7655L68.1069 47.766ZM68.1929 46.312L68.252 45.3125L67.2695 45.1269L67.2104 46.1265L68.1929 46.312ZM69.0253 46.5174L68.5728 47.3558L68.5728 47.3558L69.0253 46.5174ZM69.1759 46.6793L68.3161 47.061L68.3179 47.0646L69.1759 46.6793ZM69.1751 47.0259L70.0142 47.66L70.0165 47.6564L69.1751 47.0259ZM69.0768 47.1136L69.5843 48.0426L69.5864 48.0416L69.0768 47.1136ZM68.9408 47.1461L68.7835 46.1301L68.0057 46.1603L67.9584 46.9605L68.9408 47.1461ZM68.94 47.1603L67.9575 46.9747L67.9009 47.9325L68.839 48.151L68.94 47.1603ZM69.09 47.236L68.5351 47.9986L68.5386 48.0015L69.09 47.236ZM69.1994 47.3794L68.3205 47.7217L68.3223 47.7255L69.1994 47.3794ZM69.1644 47.7683L68.3658 47.077L68.3646 47.0785L69.1644 47.7683ZM68.9906 47.8798L68.6252 46.8965L68.6252 46.8965L68.9906 47.8798ZM68.4239 47.5717L67.4415 47.3862L67.3824 48.3857L68.3648 48.5713L68.4239 47.5717ZM68.8573 47.6041L69.44 48.4914L69.4455 48.4878L68.8573 47.6041ZM68.9007 47.3711L68.0382 47.7474L68.0382 47.7474L68.9007 47.3711ZM68.8234 47.2832L68.3357 48.0976L68.3402 48.1007L68.8234 47.2832ZM68.4467 47.1855L68.5058 46.186L67.5234 46.0004L67.4643 47L68.4467 47.1855ZM68.459 46.9775L67.4766 46.792L67.4175 47.7915L68.3999 47.9771L68.459 46.9775ZM68.7946 47.0186L69.1433 48.0065L69.1493 48.0049L68.7946 47.0186ZM68.8751 46.9692L68.1069 46.2407L68.0999 46.249L68.8751 46.9692ZM68.8619 46.7385L68.1718 47.37L68.1762 47.375L68.8619 46.7385ZM68.4803 46.6176L68.5394 45.618L67.5569 45.4324L67.4979 46.432L68.4803 46.6176ZM69.0894 47.9515L69.1753 46.4976L67.2104 46.1265L67.1245 47.5804L69.0894 47.9515ZM68.1338 47.3116L68.7059 47.4197L68.8241 45.4205L68.252 45.3125L68.1338 47.3116ZM68.7059 47.4197C68.7109 47.4206 68.7006 47.4191 68.6789 47.411C68.6569 47.4028 68.6192 47.3863 68.5728 47.3558L69.4777 45.679C69.2511 45.5299 69.019 45.4574 68.8241 45.4205L68.7059 47.4197ZM68.5728 47.3558C68.4994 47.3075 68.3932 47.2127 68.3161 47.061L70.0357 46.2977C69.8945 46.02 69.6879 45.8172 69.4777 45.679L68.5728 47.3558ZM68.3179 47.0646C68.2484 46.929 68.2291 46.7966 68.235 46.6969L70.1999 47.068C70.2144 46.8226 70.1674 46.5547 70.0338 46.2941L68.3179 47.0646ZM68.235 46.6969C68.2397 46.6183 68.2628 46.5063 68.3337 46.3954L70.0165 47.6564C70.1373 47.4679 70.1886 47.2602 70.1999 47.068L68.235 46.6969ZM68.3361 46.3918C68.3934 46.3032 68.4736 46.2318 68.5672 46.1856L69.5864 48.0416C69.7614 47.9553 69.9072 47.8253 70.0142 47.66L68.3361 46.3918ZM68.5693 46.1846C68.6458 46.1471 68.7212 46.1325 68.7835 46.1301L69.0982 48.162C69.2614 48.1557 69.4274 48.1194 69.5843 48.0426L68.5693 46.1846ZM67.9584 46.9605L67.9575 46.9747L69.9225 47.3458L69.9233 47.3316L67.9584 46.9605ZM68.839 48.151C68.728 48.1251 68.6224 48.0708 68.5351 47.9986L69.645 46.4733C69.4662 46.3255 69.2606 46.2207 69.041 46.1695L68.839 48.151ZM68.5386 48.0015C68.4369 47.918 68.3645 47.8167 68.3205 47.7217L70.0783 47.0371C69.9809 46.8267 69.8356 46.6298 69.6415 46.4705L68.5386 48.0015ZM68.3223 47.7255C68.2553 47.5821 68.2464 47.4585 68.2507 47.3868L70.2156 47.758C70.2283 47.5433 70.1969 47.2911 70.0765 47.0333L68.3223 47.7255ZM68.2507 47.3868C68.2564 47.2897 68.2898 47.1754 68.3658 47.077L69.963 48.4596C70.1215 48.2542 70.2007 48.0093 70.2156 47.758L68.2507 47.3868ZM68.3646 47.0785C68.4495 46.968 68.5539 46.9166 68.6252 46.8965L69.356 48.8631C69.5775 48.8004 69.7978 48.6747 69.9642 48.4581L68.3646 47.0785ZM68.6252 46.8965C68.7211 46.8694 68.7836 46.8831 68.7765 46.8817L68.6584 48.8809C68.8653 48.9199 69.1099 48.9326 69.356 48.8631L68.6252 46.8965ZM68.7765 46.8817L68.166 46.7664L68.0478 48.7655L68.6584 48.8809L68.7765 46.8817ZM68.3648 48.5713L68.6111 48.6178L68.7293 46.6187L68.483 46.5722L68.3648 48.5713ZM68.6111 48.6178C68.782 48.6501 69.1247 48.6886 69.4399 48.4913L68.2747 46.7168C68.3972 46.6402 68.5148 46.6182 68.5889 46.6126C68.6618 46.6071 68.7131 46.6156 68.7293 46.6187L68.6111 48.6178ZM69.4455 48.4878C69.7362 48.3027 69.8862 47.9951 69.9055 47.6685L67.9406 47.2974C67.9461 47.204 67.9699 47.0903 68.0311 46.9776C68.0931 46.8633 68.1784 46.7781 68.2691 46.7203L69.4455 48.4878ZM69.9055 47.6685C69.9178 47.4602 69.8793 47.226 69.7632 46.9947L68.0382 47.7474C67.9566 47.5848 67.933 47.4252 67.9406 47.2974L69.9055 47.6685ZM69.7632 46.9947C69.649 46.7672 69.484 46.5908 69.3065 46.4657L68.3402 48.1007C68.2314 48.024 68.118 47.9062 68.0382 47.7474L69.7632 46.9947ZM69.311 46.4689C69.118 46.3315 68.9223 46.2646 68.7591 46.2338L68.6409 48.2329C68.5745 48.2204 68.4611 48.1868 68.3357 48.0976L69.311 46.4689ZM68.7591 46.2338L68.5058 46.186L68.3876 48.1851L68.6409 48.2329L68.7591 46.2338ZM67.4643 47L67.4415 47.3862L69.4064 47.7573L69.4292 47.3711L67.4643 47ZM68.3999 47.9771L68.6239 48.0194L68.7421 46.0203L68.5181 45.9779L68.3999 47.9771ZM68.6239 48.0194C68.7799 48.0489 68.9594 48.0545 69.1433 48.0065L68.4458 46.0308C68.5638 46 68.6689 46.0064 68.7421 46.0203L68.6239 48.0194ZM69.1493 48.0049C69.3327 47.9556 69.5106 47.8548 69.6503 47.6895L68.0999 46.249C68.1991 46.1316 68.3234 46.0637 68.4398 46.0324L69.1493 48.0049ZM69.6432 47.6978C69.8085 47.5073 69.8793 47.2764 69.892 47.0615L67.9271 46.6904C67.9353 46.5522 67.9831 46.3835 68.107 46.2407L69.6432 47.6978ZM69.892 47.0615C69.911 46.7394 69.8028 46.3884 69.5476 46.102L68.1762 47.375C68.0956 47.2845 68.0236 47.1698 67.9773 47.036C67.9316 46.904 67.9215 46.7844 67.9271 46.6904L69.892 47.0615ZM69.5521 46.107C69.292 45.8117 68.9806 45.7014 68.769 45.6614L68.6508 47.6605C68.5731 47.6458 68.3631 47.5872 68.1718 47.37L69.5521 46.107ZM68.769 45.6614L68.5394 45.618L68.4212 47.6172L68.6508 47.6605L68.769 45.6614ZM67.4979 46.432L67.4766 46.792L69.4415 47.1631L69.4628 46.8032L67.4979 46.432ZM69.6069 48.0019L69.0687 48.7782L69.0744 48.7827L69.6069 48.0019ZM69.4356 47.7729L68.5357 48.067L68.5366 48.0692L69.4356 47.7729ZM69.4707 47.1787L68.6239 46.5567L68.6239 46.5567L69.4707 47.1787ZM69.6632 47.0147L69.2114 46.0609L69.2091 46.0618L69.6632 47.0147ZM70.1377 47.0677L69.7381 47.939L69.7464 47.9437L70.1377 47.0677ZM70.2921 47.201L69.559 47.7809L69.5623 47.7851L70.2921 47.201ZM70.3893 47.3945L69.4484 47.571L69.4491 47.5732L70.3893 47.3945ZM70.4084 47.7276L70.3493 48.7272L71.3318 48.9128L71.3909 47.9132L70.4084 47.7276ZM69.5034 47.5567L68.521 47.3711L68.4619 48.3707L69.4443 48.5563L69.5034 47.5567ZM69.5145 47.3693L69.5736 46.3697L68.5911 46.1841L68.532 47.1837L69.5145 47.3693ZM70.1397 47.4874L70.0806 48.4869L71.0631 48.6725L71.1221 47.6729L70.1397 47.4874ZM70.1186 47.3664L69.2337 47.6953L69.2337 47.6953L70.1186 47.3664ZM70.0458 47.2729L69.4983 48.0417L69.5052 48.0472L69.5121 48.0527L70.0458 47.2729ZM69.8119 47.2316L70.2632 48.1856L70.2667 48.1842L69.8119 47.2316ZM69.726 47.3008L70.5512 47.9556L70.5543 47.9511L69.726 47.3008ZM69.689 47.4123L68.7072 47.2157L68.7066 47.2267L69.689 47.4123ZM69.6995 47.7359L68.7962 48.0216L68.8 48.0309L69.6995 47.7359ZM69.9974 47.9019L69.7379 46.8957L69.7379 46.8957L69.9974 47.9019ZM70.0703 47.8727L69.4356 47.0209L69.4356 47.0209L70.0703 47.8727ZM70.1191 47.8115L70.2428 46.8263L69.5202 46.6406L69.2215 47.2835L70.1191 47.8115ZM70.3929 47.8819L71.342 48.2701L71.6429 47.1862L70.5166 46.8967L70.3929 47.8819ZM70.2967 48.0418L69.5972 47.243L69.5967 47.2435L70.2967 48.0418ZM70.1238 48.1268L70.4338 49.1238L70.4371 49.1231L70.1238 48.1268ZM69.9467 47.1243C69.9699 47.1287 70.0475 47.1489 70.1394 47.2211L69.0744 48.7827C69.3201 48.9759 69.5848 49.0774 69.8285 49.1234L69.9467 47.1243ZM70.1451 47.2257C70.1839 47.2566 70.2228 47.2957 70.2577 47.3423C70.2925 47.3889 70.3175 47.4352 70.3346 47.4765L68.5366 48.0692C68.6499 48.3443 68.8307 48.5885 69.0687 48.7781L70.1451 47.2257ZM70.3355 47.4788C70.3735 47.5716 70.3722 47.6363 70.3715 47.6474L68.4066 47.2763C68.3924 47.5174 68.422 47.7894 68.5357 48.067L70.3355 47.4788ZM70.3715 47.6474C70.3704 47.666 70.3625 47.7285 70.3175 47.8006L68.6239 46.5567C68.4834 46.7821 68.421 47.0334 68.4066 47.2763L70.3715 47.6474ZM70.3175 47.8006C70.275 47.8688 70.2055 47.9318 70.1172 47.9676L69.2091 46.0618C68.9599 46.1629 68.7621 46.3353 68.6239 46.5567L70.3175 47.8006ZM70.1149 47.9686C70.0152 48.0087 69.9269 48.0035 69.8832 47.9952L70.0014 45.9961C69.7473 45.9481 69.473 45.9556 69.2114 46.0609L70.1149 47.9686ZM69.8832 47.9952C69.8466 47.9883 69.7952 47.9722 69.7381 47.939L70.5372 46.1965C70.3611 46.0939 70.1794 46.0297 70.0014 45.9961L69.8832 47.9952ZM69.7464 47.9437C69.6786 47.905 69.6127 47.8492 69.559 47.7809L71.0252 46.6211C70.8857 46.4437 70.7169 46.2992 70.529 46.1918L69.7464 47.9437ZM69.5623 47.7851C69.4969 47.7027 69.4637 47.6237 69.4484 47.571L71.3302 47.218C71.272 47.0165 71.174 46.8086 71.0219 46.6169L69.5623 47.7851ZM69.4491 47.5732C69.4383 47.5363 69.4339 47.507 69.4321 47.488C69.4311 47.4784 69.4309 47.4711 69.4308 47.4664C69.4307 47.4616 69.4309 47.4591 69.4309 47.459L71.3958 47.8301C71.4066 47.6466 71.3938 47.4367 71.3295 47.2158L69.4491 47.5732ZM69.4309 47.459L69.426 47.5421L71.3909 47.9132L71.3958 47.8301L69.4309 47.459ZM70.4675 46.728L69.5625 46.5571L69.4443 48.5563L70.3493 48.7272L70.4675 46.728ZM70.4859 47.7423L70.4969 47.5548L68.532 47.1837L68.521 47.3711L70.4859 47.7423ZM69.4554 48.3688L70.0806 48.4869L70.1988 46.4878L69.5736 46.3697L69.4554 48.3688ZM71.1221 47.6729C71.1335 47.48 71.1034 47.2604 71.0036 47.0374L69.2337 47.6953C69.1671 47.5466 69.151 47.4076 69.1572 47.3018L71.1221 47.6729ZM71.0036 47.0374C70.9083 46.8245 70.7625 46.6375 70.5795 46.4931L69.5121 48.0527C69.3929 47.9587 69.2957 47.8339 69.2337 47.6953L71.0036 47.0374ZM70.5933 46.5042C70.3964 46.344 70.1847 46.259 69.9929 46.2228L69.8747 48.2219C69.7694 48.202 69.6324 48.1507 69.4983 48.0417L70.5933 46.5042ZM69.9929 46.2228C69.7897 46.1844 69.5683 46.1931 69.3571 46.279L70.2667 48.1842C70.1278 48.2407 69.9877 48.2433 69.8747 48.2219L69.9929 46.2228ZM69.3606 46.2776C69.1716 46.3535 69.0128 46.4812 68.8976 46.6505L70.5543 47.9511C70.4824 48.0568 70.3809 48.1383 70.2632 48.1856L69.3606 46.2776ZM68.9007 46.646C68.782 46.8182 68.7213 47.016 68.7073 47.2157L70.6708 47.6088C70.6628 47.7226 70.6267 47.8461 70.5512 47.9556L68.9007 46.646ZM68.7066 47.2267L68.6961 47.4049L70.661 47.776L70.6715 47.5979L68.7066 47.2267ZM68.6961 47.4049C68.6857 47.5809 68.7054 47.7949 68.7963 48.0216L70.6028 47.4501C70.6592 47.5909 70.665 47.708 70.661 47.776L68.6961 47.4049ZM68.8 48.0309C68.891 48.2525 69.0383 48.4565 69.2365 48.6158L70.3207 47.0696C70.4489 47.1726 70.5435 47.3054 70.5991 47.4408L68.8 48.0309ZM69.2365 48.6158C69.4406 48.7798 69.6572 48.8628 69.8467 48.8986L69.9649 46.8994C70.0549 46.9164 70.1867 46.9618 70.3207 47.0696L69.2365 48.6158ZM69.8467 48.8986C69.9723 48.9223 70.1118 48.9304 70.2568 48.9082L69.7379 46.8957C69.8269 46.8821 69.9054 46.8882 69.9649 46.8994L69.8467 48.8986ZM70.2568 48.9082C70.4124 48.8844 70.5672 48.8262 70.7051 48.7245L69.4356 47.0209C69.5322 46.9496 69.6384 46.9109 69.7379 46.8957L70.2568 48.9082ZM70.7051 48.7245C70.8461 48.6204 70.9488 48.4859 71.0168 48.3395L69.2215 47.2835C69.2658 47.1882 69.3359 47.0944 69.4356 47.0209L70.7051 48.7245ZM69.9955 48.7967L70.2693 48.8671L70.5166 46.8967L70.2428 46.8263L69.9955 48.7967ZM69.4439 47.4937C69.4694 47.402 69.521 47.3122 69.5972 47.243L70.9963 48.8405C71.1648 48.6873 71.2806 48.491 71.342 48.2701L69.4439 47.4937ZM69.5967 47.2435C69.6724 47.1746 69.7529 47.143 69.8104 47.1305L70.4371 49.1231C70.6338 49.0804 70.8296 48.9921 70.9967 48.8401L69.5967 47.2435ZM69.8137 47.1298C69.8862 47.1144 69.9364 47.1223 69.9467 47.1243L69.8285 49.1234C70.0155 49.1587 70.2232 49.1687 70.4338 49.1238L69.8137 47.1298ZM70.6985 48.2397L70.2398 49.074L70.2462 49.0782L70.6985 48.2397ZM70.5779 48.1071L69.7209 48.4943L69.7265 48.505L70.5779 48.1071ZM70.5843 47.7716L69.748 47.1332L70.5843 47.7716ZM70.6795 47.6891L70.191 46.7511L70.191 46.7511L70.6795 47.6891ZM70.8113 47.6566L70.6216 46.6424L70.6193 46.6426L70.8113 47.6566ZM70.965 47.6583L71.0005 48.6711L71.0083 48.6718L70.965 47.6583ZM71.1168 47.6683L71.2006 48.6843L71.2122 48.6846L71.1168 47.6683ZM71.2014 47.657L70.7003 46.7249L70.7003 46.7249L71.2014 47.657ZM71.1949 47.4928L70.5009 48.1201L70.5068 48.1267L71.1949 47.4928ZM70.95 47.4459L71.4844 48.3611L71.4922 48.3569L70.95 47.4459ZM70.8819 47.5235L70.7435 48.5047L71.5396 48.722L71.8092 47.9796L70.8819 47.5235ZM70.6083 47.4488L69.6601 47.0579L69.3597 48.1272L70.4699 48.4301L70.6083 47.4488ZM70.7008 47.2926L71.4061 48.086L71.4094 48.0829L70.7008 47.2926ZM70.8659 47.2103L71.1724 48.2081L71.1759 48.2073L70.8659 47.2103ZM71.264 47.2668L70.9627 48.189L70.9646 48.1899L71.264 47.2668ZM71.4059 47.3604L70.7981 48.0766L70.8021 48.0803L71.4059 47.3604ZM71.5003 47.4945L70.6062 47.8027L70.608 47.8068L71.5003 47.4945ZM71.4839 48.4038L71.4248 49.4034L72.4073 49.589L72.4664 48.5894L71.4839 48.4038ZM71.202 48.3506L70.2196 48.165L70.1605 49.1646L71.1429 49.3502L71.202 48.3506ZM71.211 48.1994L72.1934 48.3849L72.2525 47.3854L71.2701 47.1998L71.211 48.1994ZM71.2026 48.1978L71.2617 47.1982L70.662 47.0849L70.3558 47.5759L71.2026 48.1978ZM71.1282 48.2749L71.7289 49.1506L71.736 49.1458L71.1282 48.2749ZM71.0207 48.3156L71.2851 49.3211L71.2948 49.3195L71.0207 48.3156ZM71.094 48.1134L71.4905 49.0873L71.5003 49.084L71.094 48.1134ZM71.1771 48.0559L70.3817 47.3604L70.3817 47.3604L71.1771 48.0559ZM71.2187 47.8426L72.2011 48.0282L72.31 46.1863L70.7328 46.9034L71.2187 47.8426ZM71.1793 47.8524L71.3998 48.8637L71.4086 48.8628L71.4175 48.8616L71.1793 47.8524ZM71.1247 47.8557L71.2463 48.8724L71.2573 48.8724L71.2682 48.8721L71.1247 47.8557ZM71.0641 47.8551L71.1414 48.8707L71.1525 48.8712L71.1636 48.8715L71.0641 47.8551ZM71.0092 47.8526L70.9288 46.8368L70.9251 46.8367L71.0092 47.8526ZM70.9163 47.8602L71.249 48.852L71.249 48.852L70.9163 47.8602ZM70.8529 47.8948L71.5933 48.6539L71.6009 48.6457L70.8529 47.8948ZM70.8655 48.0645L70.2384 48.7623L70.2452 48.7689L70.252 48.7754L70.8655 48.0645ZM70.9382 47.3108C70.9842 47.3195 71.0619 47.3427 71.1508 47.4012L70.2462 49.0782C70.4391 49.2051 70.6374 49.2755 70.8201 49.31L70.9382 47.3108ZM71.1571 47.4053C71.2617 47.4751 71.3608 47.5794 71.4293 47.7092L69.7265 48.505C69.8517 48.7421 70.0312 48.9348 70.2398 49.074L71.1571 47.4053ZM71.4348 47.7199C71.5212 47.8876 71.5292 48.0312 71.525 48.1036L69.56 47.7325C69.5473 47.9488 69.5789 48.2184 69.721 48.4943L71.4348 47.7199ZM71.525 48.1036C71.5215 48.1615 71.5041 48.2827 71.4206 48.41L69.748 47.1332C69.6159 47.3346 69.5706 47.5535 69.56 47.7325L71.525 48.1036ZM71.4206 48.41C71.3606 48.5015 71.274 48.5785 71.168 48.6271L70.191 46.7511C70.0067 46.8356 69.8566 46.9676 69.748 47.1332L71.4206 48.41ZM71.168 48.6271C71.1062 48.6555 71.0484 48.6671 71.0032 48.6705L70.6193 46.6426C70.4768 46.6535 70.3311 46.6868 70.191 46.7511L71.168 48.6271ZM71.0009 48.6707L71.0005 48.6711L70.9294 46.6455C70.8277 46.6364 70.7247 46.6348 70.6216 46.6424L71.0009 48.6707ZM71.0083 48.6718C71.0773 48.6774 71.143 48.6819 71.2006 48.6842L71.033 46.6524C71.0136 46.6516 70.9781 46.6495 70.9216 46.6449L71.0083 48.6718ZM71.2122 48.6846C71.2916 48.6868 71.4952 48.6885 71.7025 48.5891L70.7003 46.7249C70.797 46.6786 70.8807 46.6634 70.9242 46.6576C70.9712 46.6514 71.006 46.6516 71.0213 46.652L71.2122 48.6846ZM71.7025 48.5891C72.0325 48.431 72.194 48.1121 72.2128 47.7949L70.2479 47.4238C70.2547 47.3087 70.2853 47.1649 70.3698 47.0257C70.4562 46.8832 70.5756 46.7847 70.7003 46.7249L71.7025 48.5891ZM72.2128 47.7949L72.213 47.7907L70.2481 47.4195L70.2479 47.4238L72.2128 47.7949ZM72.213 47.7907C72.2291 47.5183 72.1537 47.1648 71.883 46.859L70.5068 48.1267C70.4095 48.0167 70.3355 47.887 70.2917 47.7492C70.2494 47.6163 70.2433 47.5017 70.2481 47.4195L72.213 47.7907ZM71.8888 46.8656C71.6371 46.5771 71.3365 46.4715 71.1389 46.4342L71.0207 48.4334C70.9246 48.4152 70.7007 48.349 70.5009 48.12L71.8888 46.8656ZM71.1389 46.4342C70.947 46.398 70.6719 46.3898 70.4078 46.5349L71.4922 48.3569C71.2942 48.4657 71.1057 48.4494 71.0207 48.4334L71.1389 46.4342ZM70.4156 46.5306C70.2135 46.6389 70.0447 46.8193 69.9546 47.0673L71.8092 47.9796C71.7439 48.1596 71.6205 48.2882 71.4844 48.3611L70.4156 46.5306ZM71.0203 46.5422L70.7468 46.4675L70.4699 48.4301L70.7435 48.5047L71.0203 46.5422ZM71.5566 47.8397C71.5331 47.9233 71.4848 48.0132 71.4061 48.086L69.9956 46.4991C69.8293 46.653 69.7193 46.847 69.6601 47.0579L71.5566 47.8397ZM71.4094 48.0829C71.3306 48.1567 71.2427 48.1934 71.1724 48.208L70.5593 46.2126C70.3566 46.2549 70.1587 46.3464 69.9923 46.5022L71.4094 48.0829ZM71.1759 48.2073C71.1007 48.2233 71.0478 48.2152 71.0352 48.2128L71.1534 46.2137C70.9695 46.179 70.7644 46.1689 70.5558 46.2133L71.1759 48.2073ZM71.0352 48.2128C71.0173 48.2095 70.9922 48.2025 70.9627 48.189L71.5652 46.3447C71.4286 46.2823 71.2903 46.2396 71.1534 46.2137L71.0352 48.2128ZM70.9646 48.1899C70.9181 48.1687 70.8586 48.133 70.7981 48.0766L72.0137 46.6442C71.8721 46.5122 71.7179 46.4141 71.5633 46.3438L70.9646 48.1899ZM70.8021 48.0803C70.7175 48.0022 70.6499 47.9054 70.6063 47.8027L72.3943 47.1864C72.3069 46.9806 72.1763 46.7944 72.0097 46.6405L70.8021 48.0803ZM70.608 47.8068C70.5468 47.6642 70.5412 47.5463 70.5449 47.4828L72.5099 47.8539C72.5213 47.6607 72.4976 47.4269 72.3926 47.1823L70.608 47.8068ZM70.5449 47.4828L70.5015 48.2183L72.4664 48.5894L72.5099 47.8539L70.5449 47.4828ZM71.543 47.4043L71.2611 47.351L71.1429 49.3502L71.4248 49.4034L71.543 47.4043ZM72.1845 48.5362L72.1934 48.3849L70.2285 48.0138L70.2196 48.165L72.1845 48.5362ZM71.2701 47.1998L71.2617 47.1982L71.1435 49.1974L71.1519 49.1989L71.2701 47.1998ZM70.3558 47.5759C70.4002 47.5047 70.4573 47.4468 70.5204 47.404L71.736 49.1458C71.8599 49.0618 71.9666 48.9525 72.0494 48.8197L70.3558 47.5759ZM70.5275 47.3993C70.606 47.3473 70.6841 47.3223 70.7466 47.3117L71.2948 49.3195C71.4398 49.2948 71.5897 49.2428 71.7289 49.1505L70.5275 47.3993ZM70.7562 47.3101C70.8418 47.2966 70.9073 47.305 70.9382 47.3108L70.8201 49.31C70.9571 49.3359 71.1169 49.3478 71.2851 49.3211L70.7562 47.3101ZM70.9175 49.1174C71.0922 49.1503 71.2913 49.1518 71.4905 49.0873L70.6975 47.1395C70.8276 47.0974 70.9485 47.1017 71.0357 47.1182L70.9175 49.1174ZM71.5003 49.084C71.6783 49.0239 71.8444 48.9152 71.9725 48.7513L70.3817 47.3604C70.4681 47.2499 70.5787 47.1795 70.6877 47.1428L71.5003 49.084ZM71.9725 48.7513C72.1116 48.5734 72.1815 48.3602 72.1943 48.1439L70.2294 47.7728C70.2376 47.6331 70.2844 47.485 70.3817 47.3604L71.9725 48.7513ZM72.1943 48.1439L72.2011 48.0282L70.2362 47.657L70.2294 47.7728L72.1943 48.1439ZM70.7328 46.9034C70.7852 46.8796 70.8309 46.8659 70.8628 46.858C70.8955 46.8499 70.9225 46.8456 70.9411 46.8432L71.4175 48.8616C71.4795 48.8537 71.5873 48.8351 71.7045 48.7818L70.7328 46.9034ZM70.9587 46.8411C70.9663 46.8403 70.9721 46.8398 70.9756 46.8396C70.9791 46.8394 70.9811 46.8394 70.9813 46.8394L71.2682 48.8721C71.3085 48.8712 71.353 48.8688 71.3998 48.8637L70.9587 46.8411ZM71.0031 46.8391C70.9902 46.8391 70.9774 46.839 70.9646 46.8387L71.1636 48.8715C71.1912 48.8721 71.2188 48.8724 71.2463 48.8724L71.0031 46.8391ZM70.9869 46.8394C70.9658 46.8385 70.9465 46.8376 70.9288 46.8368L71.0897 48.8684C71.1048 48.869 71.122 48.8698 71.1414 48.8707L70.9869 46.8394ZM70.9251 46.8367C70.8248 46.8327 70.7072 46.8385 70.5836 46.8683L71.249 48.852C71.1789 48.8689 71.1233 48.8697 71.0933 48.8685L70.9251 46.8367ZM70.5836 46.8683C70.4259 46.9063 70.2506 46.9878 70.1049 47.144L71.6009 48.6457C71.4863 48.7685 71.3534 48.8269 71.249 48.852L70.5836 46.8683ZM70.1126 47.1359C69.9278 47.3286 69.8569 47.5688 69.8446 47.7762L71.8095 48.1473C71.8006 48.298 71.747 48.4935 71.5933 48.6538L70.1126 47.1359ZM69.8446 47.7762C69.8258 48.094 69.9376 48.4692 70.2384 48.7623L71.4925 47.3666C71.5972 47.4686 71.6895 47.6015 71.748 47.7581C71.805 47.9107 71.8155 48.0466 71.8095 48.1473L69.8446 47.7762ZM70.252 48.7754C70.475 48.986 70.7211 49.0803 70.9175 49.1174L71.0357 47.1182C71.1409 47.1381 71.3129 47.1968 71.4789 47.3535L70.252 48.7754ZM71.942 48.4904L70.9812 48.5869L71.1422 49.35L71.8829 49.4899L71.942 48.4904ZM71.6191 46.9592L71.6782 45.9596L70.3752 45.7135L70.6583 47.0558L71.6191 46.9592ZM71.9491 47.0215L72.9185 46.9704L72.7841 46.1685L72.0082 46.022L71.9491 47.0215ZM72.1259 48.0764L71.1565 48.1276L71.2909 48.9295L72.0668 49.076L72.1259 48.0764ZM72.1378 48.0787L72.0787 49.0783L72.8363 49.2213L73.073 48.5122L72.1378 48.0787ZM72.4585 47.1177L72.5176 46.1182L71.76 45.9751L71.5233 46.6842L72.4585 47.1177ZM72.7411 47.1711L73.7065 47.0977L73.5587 46.3148L72.8002 46.1715L72.7411 47.1711ZM72.9415 48.2326L71.9761 48.3061L72.1239 49.0889L72.8824 49.2322L72.9415 48.2326ZM72.9541 48.235L72.895 49.2346L73.6712 49.3812L73.8962 48.6467L72.9541 48.235ZM73.2504 47.2673L73.3095 46.2678L72.5332 46.1211L72.3083 46.8556L73.2504 47.2673ZM73.5805 47.3297L74.5088 47.7831L74.9426 46.5762L73.6396 46.3301L73.5805 47.3297ZM73.0856 48.7064L73.0266 49.7059L73.7673 49.8459L74.0139 49.1598L73.0856 48.7064ZM72.7912 48.6507L71.8314 48.7521L71.995 49.5111L72.7321 49.6503L72.7912 48.6507ZM72.5753 47.6488L73.535 47.5474L73.3715 46.7884L72.6343 46.6492L72.5753 47.6488ZM72.5641 47.6467L72.6232 46.6471L71.8855 46.5077L71.6371 47.1896L72.5641 47.6467ZM72.2365 48.546L72.1774 49.5455L72.915 49.6849L73.1634 49.003L72.2365 48.546ZM72.9028 48.3938L72.5799 46.8626L70.6583 47.0558L70.9812 48.5869L72.9028 48.3938ZM71.56 47.9588L71.89 48.0211L72.0082 46.022L71.6782 45.9596L71.56 47.9588ZM70.9797 47.0727L71.1565 48.1276L73.0953 48.0253L72.9185 46.9704L70.9797 47.0727ZM72.0668 49.076L72.0787 49.0783L72.1969 47.0791L72.185 47.0769L72.0668 49.076ZM73.073 48.5122L73.3936 47.5513L71.5233 46.6842L71.2026 47.6451L73.073 48.5122ZM72.3994 48.1173L72.682 48.1707L72.8002 46.1715L72.5176 46.1182L72.3994 48.1173ZM71.7756 47.2445L71.9761 48.3061L73.9069 48.1592L73.7065 47.0977L71.7756 47.2445ZM72.8824 49.2322L72.895 49.2346L73.0131 47.2354L73.0006 47.2331L72.8824 49.2322ZM73.8962 48.6467L74.1926 47.6791L72.3083 46.8556L72.0119 47.8233L73.8962 48.6467ZM73.1914 48.2669L73.5214 48.3292L73.6396 46.3301L73.3095 46.2678L73.1914 48.2669ZM72.6522 46.8763L72.1574 48.253L74.0139 49.1598L74.5088 47.7831L72.6522 46.8763ZM73.1447 47.7068L72.8503 47.6512L72.7321 49.6503L73.0266 49.7059L73.1447 47.7068ZM73.751 48.5494L73.535 47.5474L71.6155 47.7501L71.8314 48.7521L73.751 48.5494ZM72.6343 46.6492L72.6232 46.6471L72.505 48.6462L72.5162 48.6483L72.6343 46.6492ZM71.6371 47.1896L71.3095 48.0889L73.1634 49.003L73.491 48.1037L71.6371 47.1896ZM72.2956 47.5464L72.0011 47.4908L71.8829 49.4899L72.1774 49.5455L72.2956 47.5464ZM73.7415 48.7807L73.1903 49.5465L73.196 49.5511L73.7415 48.7807ZM73.571 48.549L72.6702 48.8408L72.6711 48.8431L73.571 48.549ZM73.6059 47.959L74.4515 48.5828L74.4527 48.581L73.6059 47.959ZM73.7997 47.796L74.2453 48.7523L74.2469 48.7517L73.7997 47.796ZM74.3614 47.9021L73.8102 48.6679L73.8159 48.6725L74.3614 47.9021ZM74.5325 48.134L73.6317 48.4259L73.6326 48.4281L74.5325 48.134ZM74.4977 48.724L75.3433 49.3478L75.3444 49.3459L74.4977 48.724ZM74.3032 48.8868L74.7488 49.8431L74.7504 49.8425L74.3032 48.8868ZM74.1598 48.6508L74.7488 49.5341L74.7552 49.5299L74.1598 48.6508ZM74.2414 48.5471L73.3344 48.0398L73.3312 48.0474L74.2414 48.5471ZM74.2615 48.2077L73.3129 48.3564L73.3152 48.3649L74.2615 48.2077ZM73.9447 48.0287L73.36 47.1427L73.3547 47.1461L73.9447 48.0287ZM73.8617 48.1322L72.9547 47.625L72.9515 47.6325L73.8617 48.1322ZM73.8416 48.4716L72.893 48.6202L72.8953 48.6288L73.8416 48.4716ZM73.9107 48.6038L73.2305 49.2465L73.2358 49.2524L73.2412 49.2582L73.9107 48.6038ZM74.0776 47.9045C74.1107 47.9108 74.1937 47.9348 74.2869 48.0103L73.196 49.5511C73.4419 49.7502 73.7096 49.8565 73.9594 49.9037L74.0776 47.9045ZM74.2926 48.015C74.3294 48.0451 74.3659 48.0827 74.3987 48.1273C74.4314 48.1717 74.4549 48.2157 74.4709 48.2548L72.6711 48.8431C72.7822 49.1141 72.9582 49.3561 73.1903 49.5465L74.2926 48.015ZM74.4718 48.2571C74.5071 48.3438 74.5079 48.4079 74.5067 48.4278L72.5418 48.0566C72.5274 48.2999 72.5593 48.5685 72.6702 48.8408L74.4718 48.2571ZM74.5067 48.4278C74.5057 48.445 74.498 48.5087 74.4515 48.5828L72.7603 47.3352C72.6182 47.5616 72.5561 47.8141 72.5418 48.0566L74.5067 48.4278ZM74.4527 48.581C74.4324 48.6134 74.404 48.6483 74.366 48.6802C74.3279 48.7123 74.2864 48.7362 74.2453 48.7523L73.3541 46.8398C73.1012 46.9392 72.8994 47.1121 72.7591 47.337L74.4527 48.581ZM74.2469 48.7517C74.1461 48.7915 74.0608 48.7843 74.026 48.7777L74.1442 46.7786C73.8926 46.7311 73.617 46.7358 73.3525 46.8404L74.2469 48.7517ZM74.026 48.7777C73.9914 48.7712 73.9057 48.7462 73.8102 48.6679L74.9125 47.1364C74.6654 46.9337 74.3955 46.8261 74.1442 46.7786L74.026 48.7777ZM73.8159 48.6725C73.7777 48.6416 73.7398 48.6029 73.7059 48.557C73.6721 48.5112 73.648 48.466 73.6317 48.4259L75.4333 47.8421C75.3217 47.568 75.1433 47.3232 74.9068 47.1317L73.8159 48.6725ZM73.6326 48.4281C73.5958 48.3383 73.5958 48.2731 73.5968 48.2559L75.5617 48.627C75.5761 48.3846 75.5449 48.1144 75.4324 47.8399L73.6326 48.4281ZM73.5968 48.2559C73.598 48.2361 73.6062 48.1736 73.6509 48.102L75.3444 49.3459C75.4847 49.1211 75.5473 48.8703 75.5617 48.627L73.5968 48.2559ZM73.652 48.1002C73.6727 48.0672 73.7013 48.0326 73.7388 48.0012C73.7763 47.9697 73.8167 47.9467 73.856 47.9312L74.7504 49.8425C75.0004 49.7436 75.2021 49.5728 75.3433 49.3478L73.652 48.1002ZM73.8576 47.9305C73.9594 47.8905 74.0447 47.8983 74.0776 47.9045L73.9594 49.9037C74.2091 49.9508 74.4842 49.9471 74.7488 49.8431L73.8576 47.9305ZM73.9747 49.6697C74.2216 49.7163 74.5018 49.6918 74.7488 49.5341L73.5708 47.7676C73.7484 47.6542 73.9446 47.6425 74.0929 47.6705L73.9747 49.6697ZM74.7552 49.5299C74.9533 49.4008 75.0777 49.2214 75.1516 49.0468L73.3312 48.0474C73.3657 47.9658 73.4357 47.8556 73.5644 47.7717L74.7552 49.5299ZM75.1484 49.0543C75.2196 48.8902 75.2506 48.7221 75.2597 48.5679L73.2948 48.1967C73.2964 48.1693 73.3035 48.1111 73.3344 48.0399L75.1484 49.0543ZM75.2597 48.5679C75.2688 48.4136 75.2582 48.2377 75.2077 48.0505L73.3152 48.3649C73.2933 48.2837 73.2932 48.2241 73.2948 48.1967L75.2597 48.5679ZM75.21 48.0591C75.1582 47.8607 75.0575 47.6388 74.8788 47.4385L73.5087 48.713C73.3927 48.583 73.3372 48.449 73.313 48.3564L75.21 48.0591ZM74.8788 47.4385C74.6561 47.1889 74.383 47.057 74.1319 47.0096L74.0137 49.0087C73.8613 48.9799 73.6688 48.8924 73.5087 48.713L74.8788 47.4385ZM74.1319 47.0096C73.8824 46.9625 73.6045 46.9888 73.36 47.1427L74.5293 48.9148C74.3562 49.0238 74.1637 49.0371 74.0137 49.0087L74.1319 47.0096ZM73.3547 47.1461C73.1564 47.2731 73.0304 47.4505 72.9547 47.625L74.7686 48.6394C74.7332 48.721 74.6625 48.8295 74.5347 48.9113L73.3547 47.1461ZM72.9515 47.6325C72.8829 47.7946 72.853 47.96 72.8441 48.1116L74.809 48.4827C74.8075 48.5075 74.801 48.5629 74.7718 48.6319L72.9515 47.6325ZM72.8441 48.1116C72.8351 48.2632 72.845 48.4361 72.8931 48.6202L74.7901 48.3229C74.8106 48.4013 74.8104 48.458 74.809 48.4827L72.8441 48.1116ZM72.8953 48.6288C72.949 48.8276 73.0515 49.0482 73.2305 49.2465L74.5908 47.9611C74.7063 48.0889 74.7628 48.2214 74.7878 48.3144L72.8953 48.6288ZM73.2412 49.2582C73.4626 49.4969 73.7292 49.6233 73.9747 49.6697L74.0929 47.6705C74.2387 47.6981 74.4233 47.7803 74.5802 47.9494L73.2412 49.2582ZM74.7406 49.019L73.7581 48.8334L73.699 49.833L74.6815 50.0185L74.7406 49.019ZM74.805 47.9285L74.8641 46.9289L73.8817 46.7434L73.8226 47.7429L74.805 47.9285ZM75.0932 47.9829L76.0757 48.1685L76.1347 47.1689L75.1523 46.9834L75.0932 47.9829ZM75.082 48.1732L74.0995 47.9876L74.0404 48.9872L75.0229 49.1728L75.082 48.1732ZM75.0931 48.1753L75.034 49.1749L75.7694 49.3138L76.0191 48.635L75.0931 48.1753ZM75.2006 48.0405L75.7361 48.9552L75.7414 48.9523L75.2006 48.0405ZM75.4107 48.03L75.5751 47.0562L75.5751 47.0562L75.4107 48.03ZM75.4556 48.0464L76.4381 48.2319L76.4842 47.4515L75.7512 47.1216L75.4556 48.0464ZM75.4398 48.3147L75.1009 49.2188L76.3428 49.8437L76.4222 48.5003L75.4398 48.3147ZM75.1962 48.2816L75.6165 49.2474L75.6206 49.2459L75.1962 48.2816ZM75.1106 48.3459L74.2973 47.674L74.2917 47.6819L75.1106 48.3459ZM75.0378 49.0751L74.9787 50.0747L75.9612 50.2602L76.0203 49.2607L75.0378 49.0751ZM75.723 49.2045L75.7875 48.1141L73.8226 47.7429L73.7581 48.8334L75.723 49.2045ZM74.7459 48.9281L75.0341 48.9825L75.1523 46.9834L74.8641 46.9289L74.7459 48.9281ZM74.1108 47.7974L74.0995 47.9876L76.0644 48.3588L76.0757 48.1685L74.1108 47.7974ZM75.0229 49.1728L75.034 49.1749L75.1522 47.1757L75.141 47.1736L75.0229 49.1728ZM76.0191 48.635C75.9856 48.7261 75.9041 48.8649 75.7361 48.9552L74.6651 47.1259C74.4009 47.2679 74.2477 47.4965 74.1671 47.7156L76.0191 48.635ZM75.7414 48.9523C75.604 49.0275 75.4458 49.0445 75.3037 49.0176L75.4219 47.0185C75.1597 46.969 74.8934 47.001 74.6597 47.1288L75.7414 48.9523ZM75.3037 49.0176C75.2782 49.0128 75.2587 49.0075 75.2464 49.0038L75.5751 47.0562C75.5286 47.0422 75.4771 47.0289 75.4219 47.0185L75.3037 49.0176ZM75.2464 49.0038C75.2311 48.9992 75.2004 48.9893 75.16 48.9711L75.7512 47.1216C75.6852 47.0919 75.6246 47.0711 75.5751 47.0562L75.2464 49.0038ZM74.4732 47.8608L74.4573 48.1292L76.4222 48.5003L76.4381 48.2319L74.4732 47.8608ZM75.7787 47.4106C75.6931 47.3676 75.6152 47.3406 75.5698 47.3258L75.1953 49.2591C75.1932 49.2584 75.1846 49.2556 75.1712 49.2504C75.1589 49.2456 75.1337 49.2354 75.1009 49.2188L75.7787 47.4106ZM75.5698 47.3258C75.5116 47.3068 75.4457 47.2886 75.3742 47.2751L75.2561 49.2742C75.2255 49.2685 75.2045 49.2621 75.1953 49.2591L75.5698 47.3258ZM75.3742 47.2751C75.1828 47.2389 74.9741 47.244 74.7717 47.3174L75.6206 49.2459C75.4895 49.2935 75.36 49.2939 75.2561 49.2742L75.3742 47.2751ZM74.7759 47.3159C74.5811 47.3854 74.4174 47.5089 74.2974 47.674L75.9237 49.0177C75.8478 49.1222 75.7412 49.2029 75.6165 49.2474L74.7759 47.3159ZM74.2917 47.6819C74.1616 47.8654 74.1036 48.0742 74.0918 48.2726L76.0567 48.6437C76.0503 48.7532 76.0164 48.8871 75.9294 49.0098L74.2917 47.6819ZM74.0918 48.2726L74.0554 48.8895L76.0203 49.2607L76.0567 48.6437L74.0918 48.2726ZM75.0969 48.0755L74.7997 48.0194L74.6815 50.0185L74.9787 50.0747L75.0969 48.0755ZM75.8325 48.9079L74.8501 48.7204L74.6874 51.3859L76.5326 49.7061L75.8325 48.9079ZM75.8546 48.5453L75.9137 47.5457L74.9332 47.3605L74.8723 48.3577L75.8546 48.5453ZM75.8979 48.5534L75.8388 49.553L76.2952 49.6392L76.6106 49.3399L75.8979 48.5534ZM76.2656 48.2044L76.3247 47.2048L75.8683 47.1186L75.5529 47.4179L76.2656 48.2044ZM76.6068 48.2688L77.3147 49.0599L78.8005 47.6724L76.6659 47.2693L76.6068 48.2688ZM76.1132 48.7298L76.0541 49.7294L76.5063 49.8148L76.8211 49.5208L76.1132 48.7298ZM76.0427 48.7165L76.1018 47.7169L75.6563 47.6327L75.3426 47.9183L76.0427 48.7165ZM75.5446 49.1708L74.5621 48.9852L74.503 49.9848L75.4855 50.1704L75.5446 49.1708ZM75.6305 47.7169L75.6896 46.7173L74.7071 46.5317L74.6481 47.5313L75.6305 47.7169ZM75.9278 47.773L76.9102 47.9586L76.9693 46.959L75.9868 46.7735L75.9278 47.773ZM75.8418 49.227L75.7827 50.2265L76.7652 50.4121L76.8243 49.4125L75.8418 49.227ZM76.2144 49.2973L75.3673 49.7032L75.6334 50.1983L76.1553 50.2969L76.2144 49.2973ZM75.9271 48.7628L75.2531 47.9419L74.6787 48.4221L75.08 49.1687L75.9271 48.7628ZM76.1379 48.5866L76.9809 48.1731L76.3519 47.0231L75.4639 47.7656L76.1379 48.5866ZM76.5626 49.3631L76.5035 50.3627L78.3714 50.7155L77.4056 48.9496L76.5626 49.3631ZM76.8148 49.0954L76.8369 48.7328L74.8723 48.3577L74.8501 48.7204L76.8148 49.0954ZM75.7955 49.5448L75.8388 49.553L75.9569 47.5539L75.9137 47.5457L75.7955 49.5448ZM76.6106 49.3399L76.9783 48.9909L75.5529 47.4179L75.1851 47.7669L76.6106 49.3399ZM76.2065 49.204L76.5477 49.2684L76.6659 47.2693L76.3247 47.2048L76.2065 49.204ZM75.899 47.4778L75.4054 47.9387L76.8211 49.5208L77.3147 49.0599L75.899 47.4778ZM76.1723 47.7302L76.1018 47.7169L75.9836 49.716L76.0541 49.7294L76.1723 47.7302ZM75.3426 47.9183L75.1323 48.1097L76.5326 49.7061L76.7429 49.5146L75.3426 47.9183ZM76.527 49.3564L76.613 47.9025L74.6481 47.5313L74.5621 48.9852L76.527 49.3564ZM75.5714 48.7165L75.8687 48.7726L75.9868 46.7735L75.6896 46.7173L75.5714 48.7165ZM74.9453 47.5875L74.8594 49.0414L76.8243 49.4125L76.9102 47.9586L74.9453 47.5875ZM75.9009 48.2274L75.6037 48.1712L75.4855 50.1704L75.7827 50.2265L75.9009 48.2274ZM77.0616 48.8915L76.7743 48.357L75.08 49.1687L75.3673 49.7032L77.0616 48.8915ZM76.6011 49.5838L76.8119 49.4075L75.4639 47.7656L75.2531 47.9419L76.6011 49.5838ZM75.2949 49L75.7196 49.7766L77.4056 48.9496L76.9809 48.1731L75.2949 49ZM76.6217 48.3635L76.2735 48.2978L76.1553 50.2969L76.5035 50.3627L76.6217 48.3635ZM76.8506 49.3701L76.3124 50.1464L76.3181 50.1509L76.8506 49.3701ZM76.6793 49.1411L75.7794 49.4352L75.7803 49.4374L76.6793 49.1411ZM76.7144 48.5469L75.8676 47.9249L75.8676 47.9249L76.7144 48.5469ZM76.9068 48.3829L76.4551 47.4291L76.4528 47.43L76.9068 48.3829ZM77.3814 48.4359L76.9818 49.3072L76.9901 49.3119L77.3814 48.4359ZM77.5358 48.5692L76.8026 49.1491L76.806 49.1533L77.5358 48.5692ZM77.633 48.7627L76.6921 48.9392L76.6928 48.9414L77.633 48.7627ZM77.6521 49.0958L77.593 50.0954L78.5755 50.281L78.6345 49.2814L77.6521 49.0958ZM76.7471 48.9249L75.7646 48.7393L75.7055 49.7389L76.688 49.9245L76.7471 48.9249ZM76.7582 48.7375L76.8173 47.7379L75.8348 47.5523L75.7757 48.5519L76.7582 48.7375ZM77.3834 48.8556L77.3243 49.8551L78.3067 50.0407L78.3658 49.0411L77.3834 48.8556ZM77.3623 48.7346L76.4773 49.0635L76.4773 49.0635L77.3623 48.7346ZM77.2895 48.6411L76.742 49.4099L76.7488 49.4154L76.7558 49.4209L77.2895 48.6411ZM77.0556 48.5998L77.5069 49.5538L77.5104 49.5524L77.0556 48.5998ZM76.9696 48.669L77.7949 49.3238L77.798 49.3193L76.9696 48.669ZM76.9327 48.7805L75.9509 48.5839L75.9503 48.5949L76.9327 48.7805ZM76.9432 49.1041L76.0399 49.3898L76.0437 49.3991L76.9432 49.1041ZM77.241 49.2701L76.9816 48.2639L76.9816 48.2639L77.241 49.2701ZM77.314 49.2409L76.6793 48.3891L76.6793 48.3891L77.314 49.2409ZM77.3628 49.1797L77.4864 48.1945L76.7639 48.0088L76.4652 48.6517L77.3628 49.1797ZM77.6366 49.2501L78.5856 49.6383L78.8866 48.5544L77.7603 48.2649L77.6366 49.2501ZM77.5404 49.41L76.8408 48.6112L76.8404 48.6117L77.5404 49.41ZM77.3674 49.495L77.6774 50.492L77.6807 50.4913L77.3674 49.495ZM77.1903 48.4925C77.2135 48.4969 77.2912 48.5171 77.3831 48.5893L76.3181 50.1509C76.5637 50.3441 76.8285 50.4456 77.0722 50.4916L77.1903 48.4925ZM77.3888 48.5939C77.4276 48.6248 77.4665 48.6639 77.5014 48.7105C77.5362 48.7571 77.5612 48.8034 77.5783 48.8447L75.7803 49.4374C75.8936 49.7125 76.0744 49.9567 76.3124 50.1463L77.3888 48.5939ZM77.5792 48.847C77.6172 48.9398 77.6159 49.0045 77.6152 49.0156L75.6503 48.6445C75.636 48.8856 75.6657 49.1576 75.7794 49.4352L77.5792 48.847ZM77.6152 49.0156C77.6141 49.0342 77.6062 49.0967 77.5612 49.1688L75.8676 47.9249C75.727 48.1503 75.6647 48.4016 75.6503 48.6445L77.6152 49.0156ZM77.5612 49.1688C77.5187 49.237 77.4491 49.3 77.3609 49.3358L76.4528 47.43C76.2035 47.5311 76.0057 47.7035 75.8676 47.9249L77.5612 49.1688ZM77.3586 49.3368C77.2589 49.3769 77.1706 49.3717 77.1269 49.3634L77.245 47.3643C76.991 47.3163 76.7167 47.3238 76.4551 47.4291L77.3586 49.3368ZM77.1269 49.3634C77.0903 49.3565 77.0388 49.3404 76.9818 49.3072L77.7809 47.5647C77.6047 47.4621 77.423 47.3979 77.245 47.3643L77.1269 49.3634ZM76.9901 49.3119C76.9222 49.2732 76.8564 49.2174 76.8026 49.1491L78.2689 47.9893C78.1294 47.8119 77.9606 47.6674 77.7726 47.56L76.9901 49.3119ZM76.806 49.1533C76.7405 49.0709 76.7073 48.9919 76.6921 48.9392L78.5738 48.5862C78.5157 48.3847 78.4177 48.1768 78.2655 47.9851L76.806 49.1533ZM76.6928 48.9414C76.682 48.9045 76.6776 48.8752 76.6757 48.8562C76.6748 48.8466 76.6745 48.8394 76.6745 48.8346C76.6744 48.8298 76.6745 48.8273 76.6745 48.8272L78.6394 49.1983C78.6503 49.0148 78.6374 48.8049 78.5732 48.584L76.6928 48.9414ZM76.6745 48.8272L76.6696 48.9103L78.6345 49.2814L78.6394 49.1983L76.6745 48.8272ZM77.7112 48.0962L76.8062 47.9253L76.688 49.9245L77.593 50.0954L77.7112 48.0962ZM77.7295 49.1105L77.7406 48.923L75.7757 48.5519L75.7646 48.7393L77.7295 49.1105ZM76.6991 49.737L77.3243 49.8551L77.4424 47.856L76.8173 47.7379L76.6991 49.737ZM78.3658 49.0411C78.3772 48.8482 78.3471 48.6286 78.2473 48.4056L76.4773 49.0635C76.4107 48.9148 76.3947 48.7758 76.4009 48.67L78.3658 49.0411ZM78.2473 48.4056C78.1519 48.1927 78.0062 48.0057 77.8232 47.8613L76.7558 49.4209C76.6366 49.3269 76.5394 49.2021 76.4773 49.0635L78.2473 48.4056ZM77.837 47.8724C77.6401 47.7122 77.4284 47.6272 77.2366 47.591L77.1184 49.5901C77.0131 49.5702 76.8761 49.5189 76.742 49.4099L77.837 47.8724ZM77.2366 47.591C77.0333 47.5526 76.812 47.5613 76.6008 47.6472L77.5104 49.5524C77.3715 49.6089 77.2314 49.6115 77.1184 49.5901L77.2366 47.591ZM76.6043 47.6458C76.4152 47.7217 76.2565 47.8494 76.1413 48.0187L77.798 49.3193C77.7261 49.425 77.6246 49.5065 77.5069 49.5538L76.6043 47.6458ZM76.1444 48.0142C76.0257 48.1864 75.965 48.3842 75.951 48.5839L77.9145 48.977C77.9065 49.0908 77.8704 49.2143 77.7949 49.3238L76.1444 48.0142ZM75.9503 48.5949L75.9397 48.7731L77.9046 49.1442L77.9152 48.9661L75.9503 48.5949ZM75.9397 48.7731C75.9293 48.9491 75.9491 49.1631 76.0399 49.3898L77.8465 48.8183C77.9029 48.9591 77.9087 49.0762 77.9046 49.1442L75.9397 48.7731ZM76.0437 49.3991C76.1347 49.6207 76.2819 49.8247 76.4801 49.984L77.5644 48.4378C77.6926 48.5408 77.7871 48.6736 77.8427 48.809L76.0437 49.3991ZM76.4801 49.984C76.6843 50.148 76.9008 50.231 77.0904 50.2668L77.2086 48.2676C77.2986 48.2846 77.4303 48.33 77.5644 48.4378L76.4801 49.984ZM77.0904 50.2668C77.2159 50.2905 77.3554 50.2986 77.5005 50.2764L76.9816 48.2639C77.0706 48.2503 77.1491 48.2564 77.2086 48.2676L77.0904 50.2668ZM77.5005 50.2764C77.656 50.2526 77.8109 50.1944 77.9488 50.0927L76.6793 48.3891C76.7758 48.3178 76.882 48.2791 76.9816 48.2639L77.5005 50.2764ZM77.9488 50.0927C78.0898 49.9886 78.1924 49.8541 78.2604 49.7077L76.4652 48.6517C76.5094 48.5564 76.5796 48.4626 76.6793 48.3891L77.9488 50.0927ZM77.2391 50.1649L77.513 50.2353L77.7603 48.2649L77.4864 48.1945L77.2391 50.1649ZM76.6876 48.8619C76.7131 48.7702 76.7647 48.6804 76.8408 48.6112L78.2399 50.2087C78.4085 50.0555 78.5243 49.8592 78.5856 49.6383L76.6876 48.8619ZM76.8404 48.6117C76.9161 48.5428 76.9966 48.5112 77.0541 48.4987L77.6807 50.4913C77.8774 50.4486 78.0732 50.3603 78.2404 50.2083L76.8404 48.6117ZM77.0574 48.498C77.1299 48.4826 77.1801 48.4905 77.1903 48.4925L77.0722 50.4916C77.2592 50.5269 77.4668 50.5369 77.6774 50.492L77.0574 48.498ZM77.8184 49.6003L76.836 49.4147L76.7769 50.4143L77.7593 50.5999L77.8184 49.6003ZM77.8829 48.5099L77.942 47.5103L76.9595 47.3247L76.9004 48.3243L77.8829 48.5099ZM78.171 48.5643L79.1535 48.7499L79.2126 47.7503L78.2301 47.5647L78.171 48.5643ZM78.1598 48.7545L77.1773 48.569L77.1183 49.5686L78.1007 49.7541L78.1598 48.7545ZM78.171 48.7567L78.1119 49.7562L78.8473 49.8951L79.0969 49.2164L78.171 48.7567ZM78.2784 48.6219L78.8139 49.5366L78.8193 49.5336L78.2784 48.6219ZM78.4886 48.6113L78.6529 47.6375L78.6529 47.6375L78.4886 48.6113ZM78.5335 48.6277L79.5159 48.8133L79.5621 48.0328L78.8291 47.703L78.5335 48.6277ZM78.5176 48.8961L78.1787 49.8002L79.4207 50.4251L79.5001 49.0816L78.5176 48.8961ZM78.274 48.863L78.6943 49.8288L78.6985 49.8273L78.274 48.863ZM78.1884 48.9272L77.3752 48.2553L77.3695 48.2633L78.1884 48.9272ZM78.1157 49.6564L78.0566 50.656L79.039 50.8416L79.0981 49.842L78.1157 49.6564ZM78.8009 49.7859L78.8653 48.6954L76.9004 48.3243L76.836 49.4147L78.8009 49.7859ZM77.8238 49.5094L78.112 49.5639L78.2301 47.5647L77.942 47.5103L77.8238 49.5094ZM77.1886 48.3787L77.1773 48.569L79.1423 48.9401L79.1535 48.7499L77.1886 48.3787ZM78.1007 49.7541L78.1119 49.7562L78.2301 47.7571L78.2189 47.755L78.1007 49.7541ZM79.0969 49.2164C79.0634 49.3075 78.9819 49.4462 78.8139 49.5365L77.7429 47.7073C77.4787 47.8493 77.3256 48.0779 77.245 48.2969L79.0969 49.2164ZM78.8193 49.5336C78.6818 49.6088 78.5236 49.6258 78.3815 49.599L78.4997 47.5998C78.2376 47.5503 77.9712 47.5823 77.7375 47.7102L78.8193 49.5336ZM78.3815 49.599C78.356 49.5942 78.3365 49.5889 78.3242 49.5852L78.6529 47.6375C78.6064 47.6235 78.555 47.6103 78.4997 47.5998L78.3815 49.599ZM78.3242 49.5852C78.3089 49.5806 78.2782 49.5706 78.2379 49.5524L78.8291 47.703C78.7631 47.6733 78.7025 47.6524 78.6529 47.6375L78.3242 49.5852ZM77.551 48.4422L77.5352 48.7105L79.5001 49.0816L79.5159 48.8133L77.551 48.4422ZM78.8565 47.992C78.7709 47.9489 78.693 47.9219 78.6476 47.9071L78.2732 49.8404C78.2711 49.8398 78.2624 49.8369 78.249 49.8317C78.2368 49.8269 78.2116 49.8167 78.1787 49.8002L78.8565 47.992ZM78.6476 47.9071C78.5895 47.8882 78.5235 47.8699 78.4521 47.8564L78.3339 49.8556C78.3034 49.8498 78.2824 49.8434 78.2732 49.8404L78.6476 47.9071ZM78.4521 47.8564C78.2607 47.8203 78.0519 47.8253 77.8496 47.8987L78.6985 49.8273C78.5673 49.8749 78.4379 49.8752 78.3339 49.8556L78.4521 47.8564ZM77.8538 47.8972C77.6589 47.9667 77.4952 48.0902 77.3752 48.2554L79.0016 49.5991C78.9256 49.7036 78.819 49.7843 78.6943 49.8288L77.8538 47.8972ZM77.3695 48.2633C77.2394 48.4467 77.1814 48.6556 77.1697 48.854L79.1346 49.2251C79.1281 49.3345 79.0942 49.4685 79.0072 49.5912L77.3695 48.2633ZM77.1697 48.854L77.1332 49.4709L79.0981 49.842L79.1346 49.2251L77.1697 48.854ZM78.1747 48.6569L77.8775 48.6007L77.7593 50.5999L78.0566 50.656L78.1747 48.6569ZM79.5602 49.1411L79.5616 50.1502L80.6171 50.283L80.542 49.1942L79.5602 49.1411ZM79.2871 49.1067L78.3121 49.1208L78.4297 50.0078L79.2885 50.1158L79.2871 49.1067ZM79.2609 49.0372L78.4584 49.5194L78.4654 49.5301L79.2609 49.0372ZM79.2029 48.9796L78.7303 49.8044L78.74 49.8111L78.7499 49.8176L79.2029 48.9796ZM78.997 48.9529L79.4537 49.9048L79.463 49.9008L78.997 48.9529ZM78.9718 49.0938L78.2849 49.729L78.2849 49.729L78.9718 49.0938ZM79.0746 49.157L78.8103 50.0954L78.8226 50.1003L79.0746 49.157ZM79.2662 49.2334L79.5217 48.2916L79.5181 48.2902L79.2662 49.2334ZM79.493 49.3825L78.7817 49.9893L78.7817 49.9893L79.493 49.3825ZM79.4853 49.7637L78.7473 49.0023L78.7437 49.006L79.4853 49.7637ZM79.309 49.8582L79.6284 50.8531L79.6315 50.8524L79.309 49.8582ZM78.7263 49.7021L78.1087 50.4092L78.1136 50.4138L78.7263 49.7021ZM78.5936 49.4273L78.6011 48.4194L77.5268 48.2743L77.6125 49.383L78.5936 49.4273ZM78.8869 49.4669L79.8613 49.4486L79.7418 48.5734L78.8944 48.459L78.8869 49.4669ZM78.9452 49.5798L78.3485 50.3064L78.356 50.3131L78.9452 49.5798ZM79.201 49.6317L79.6762 50.5758L79.6794 50.5743L79.201 49.6317ZM79.2546 49.5607L80.2361 49.7608L80.2373 49.745L80.2379 49.7291L79.2546 49.5607ZM79.2244 49.4868L78.5682 50.1554L78.5778 50.1652L79.2244 49.4868ZM79.1236 49.4262L79.3742 48.4824L79.3735 48.4821L79.1236 49.4262ZM78.9402 49.3535L78.6896 50.2972L78.6903 50.2975L78.9402 49.3535ZM78.713 49.1986L77.9706 49.7665L77.9736 49.7704L78.713 49.1986ZM78.7153 48.8128L77.9677 48.0615L77.9639 48.0657L78.7153 48.8128ZM78.8806 48.7256L78.575 47.7277L78.5728 47.7281L78.8806 48.7256ZM79.4375 48.8774L78.8073 49.5722L78.8095 49.5743L79.4375 48.8774ZM79.5589 48.132L79.2857 48.0977L79.2885 50.1158L79.5616 50.1502L79.5589 48.132ZM80.2621 49.0927C80.2362 48.8975 80.1645 48.7101 80.0563 48.5442L78.4654 49.5301C78.3857 49.4079 78.3315 49.2669 78.3121 49.1208L80.2621 49.0927ZM80.0633 48.555C79.9478 48.3737 79.802 48.2378 79.6559 48.1415L78.7499 49.8176C78.6526 49.7536 78.5455 49.6561 78.4585 49.5194L80.0633 48.555ZM79.6755 48.1547C79.4953 48.0306 79.3168 47.9724 79.1744 47.9455L79.0562 49.9447C78.9827 49.9308 78.8626 49.8955 78.7303 49.8044L79.6755 48.1547ZM79.1744 47.9455C78.9894 47.9106 78.7592 47.9083 78.531 48.0049L79.463 49.9008C79.3005 49.9697 79.1491 49.9622 79.0562 49.9447L79.1744 47.9455ZM78.5403 48.0011C78.2567 48.1173 77.9886 48.395 77.9625 48.8364L79.9274 49.2076C79.9182 49.3639 79.8678 49.5259 79.764 49.6637C79.6644 49.796 79.5448 49.8674 79.4537 49.9047L78.5403 48.0011ZM77.9625 48.8364C77.9427 49.1713 78.0739 49.4915 78.2849 49.729L79.6586 48.4586C79.7344 48.5439 79.811 48.658 79.8639 48.7998C79.9173 48.9431 79.9348 49.0832 79.9274 49.2076L77.9625 48.8364ZM78.2849 49.729C78.4867 49.9563 78.7195 50.0578 78.8103 50.0953L79.3388 48.2188C79.3514 48.224 79.3869 48.2393 79.4348 48.2687C79.4792 48.296 79.5669 48.3553 79.6586 48.4586L78.2849 49.729ZM78.8226 50.1003L79.0143 50.1767L79.5181 48.2902L79.3265 48.2138L78.8226 50.1003ZM79.0107 50.1753C79.0103 50.1751 78.9862 50.1655 78.9481 50.1405C78.9096 50.1152 78.847 50.0676 78.7817 49.9893L80.2044 48.7757C79.9828 48.51 79.7142 48.3692 79.5217 48.2916L79.0107 50.1753ZM78.7817 49.9893C78.7108 49.9042 78.6513 49.8005 78.6143 49.685C78.5782 49.572 78.5718 49.4738 78.5761 49.4017L80.541 49.7729C80.5601 49.449 80.4633 49.0862 80.2044 48.7757L78.7817 49.9893ZM78.5761 49.4017C78.5799 49.3379 78.5938 49.265 78.6246 49.1908C78.6556 49.1162 78.6985 49.0528 78.7473 49.0023L80.2234 50.5251C80.4199 50.3217 80.5242 50.0567 80.541 49.7729L78.5761 49.4017ZM78.7437 49.006C78.829 48.9166 78.9239 48.8782 78.9865 48.8639L79.6315 50.8524C79.841 50.8046 80.0534 50.7032 80.2269 50.5214L78.7437 49.006ZM78.9896 48.8632C79.0608 48.8472 79.11 48.8551 79.1191 48.8568L79.001 50.8559C79.1962 50.8928 79.4114 50.9018 79.6284 50.8531L78.9896 48.8632ZM79.1191 48.8568C79.1046 48.854 79.2114 48.8703 79.3389 48.9905L78.1136 50.4138C78.4024 50.686 78.7317 50.8051 79.001 50.8559L79.1191 48.8568ZM79.3438 48.9951C79.3992 49.0479 79.4581 49.122 79.5037 49.2166C79.5493 49.311 79.5692 49.4001 79.5747 49.4716L77.6125 49.383C77.6423 49.767 77.8167 50.1308 78.1088 50.4092L79.3438 48.9951ZM78.5861 50.4352L78.8794 50.4748L78.8944 48.459L78.6011 48.4194L78.5861 50.4352ZM77.9125 49.4852C77.952 49.7744 78.093 50.0741 78.3486 50.3063L79.5418 48.8533C79.6272 48.9309 79.7043 49.0282 79.7628 49.1416C79.8205 49.2535 79.8492 49.36 79.8613 49.4486L77.9125 49.4852ZM78.356 50.3131C78.5831 50.5159 78.8273 50.6028 79.0145 50.6381L79.1327 48.639C79.2139 48.6543 79.3724 48.702 79.5343 48.8466L78.356 50.3131ZM79.0145 50.6381C79.1826 50.6699 79.4282 50.6843 79.6762 50.5758L78.7259 48.6877C78.9082 48.6079 79.0689 48.6269 79.1327 48.639L79.0145 50.6381ZM79.6794 50.5743C79.94 50.4589 80.2042 50.1949 80.2361 49.7608L78.2731 49.3607C78.2847 49.2037 78.3374 49.0485 78.4353 48.9188C78.529 48.7947 78.6394 48.726 78.7226 48.6892L79.6794 50.5743ZM80.2379 49.7291C80.2526 49.3812 80.1062 49.0485 79.871 48.8085L78.5778 50.1652C78.4943 50.08 78.4083 49.9632 78.3477 49.8149C78.2865 49.6652 78.266 49.5193 78.2713 49.3924L80.2379 49.7291ZM79.8805 48.8183C79.6904 48.6198 79.4826 48.5255 79.3742 48.4824L78.873 50.3699C78.8548 50.3627 78.8177 50.3468 78.7698 50.318C78.7231 50.2899 78.6481 50.2387 78.5683 50.1554L79.8805 48.8183ZM79.3735 48.4821L79.1901 48.4094L78.6903 50.2975L78.8736 50.3702L79.3735 48.4821ZM79.1908 48.4097C79.1928 48.4105 79.3238 48.4604 79.4524 48.6268L77.9736 49.7704C78.1983 50.0612 78.4808 50.2143 78.6896 50.2972L79.1908 48.4097ZM79.4554 48.6306C79.5176 48.7118 79.5682 48.8077 79.5993 48.9121C79.6298 49.0144 79.6351 49.1031 79.6313 49.1689L77.6664 48.7977C77.6478 49.1108 77.735 49.4592 77.9706 49.7665L79.4554 48.6306ZM79.6313 49.1689C79.6241 49.2901 79.5786 49.4387 79.4668 49.56L77.9639 48.0657C77.7717 48.2741 77.6818 48.5364 77.6664 48.7977L79.6313 49.1689ZM79.463 49.5641C79.368 49.6657 79.2602 49.708 79.1885 49.7231L78.5728 47.7281C78.362 47.7725 78.144 47.8729 77.9677 48.0615L79.463 49.5641ZM79.1863 49.7235C79.1137 49.7386 79.0665 49.7298 79.064 49.7293L79.1822 47.7302C78.9965 47.6951 78.7876 47.6835 78.575 47.7277L79.1863 49.7235ZM79.064 49.7293C79.0635 49.7292 79.0568 49.7279 79.0448 49.7242C79.0329 49.7205 79.0146 49.714 78.9914 49.7031C78.944 49.6809 78.8768 49.6405 78.8073 49.5722L80.0677 48.1827C79.7787 47.8989 79.445 47.7798 79.1822 47.7302L79.064 49.7293ZM78.8095 49.5743C78.7507 49.5169 78.6913 49.4391 78.6464 49.3427C78.6018 49.2469 78.5833 49.1579 78.5785 49.088L80.542 49.1942C80.5163 48.8228 80.3533 48.4616 80.0656 48.1805L78.8095 49.5743Z" fill="black" mask="url(#path-20-inside-1_39_43)"/>
<path d="M20.8452 37.7962C41.5429 40.6765 61.9982 43.0746 83.8704 48.2969" stroke="black" stroke-miterlimit="1.5" stroke-linecap="round" stroke-linejoin="round"/>
<path d="M29.7749 17.8865C51.0248 3.90186 77.7254 11.1773 79.1095 47.1091" stroke="black" stroke-miterlimit="1.5" stroke-linecap="round" stroke-linejoin="round"/>
<path d="M67.8169 30.4286L70.0139 29.2696L70.5009 30.5586L68.3038 31.7176L67.8169 30.4286Z" fill="black" stroke="black" stroke-miterlimit="1.5" stroke-linecap="round" stroke-linejoin="round"/>
<path d="M68.8035 29.959L71.5731 34.13" stroke="black" stroke-miterlimit="1.5" stroke-linecap="round" stroke-linejoin="round"/>
<path d="M73.8327 32.0087L72.6518 29.7944L71.4459 30.333L72.6268 32.5472L73.8327 32.0087Z" fill="black" stroke="black" stroke-miterlimit="1.5" stroke-linecap="round" stroke-linejoin="round"/>
<path d="M73.1599 30.8076L69.0724 33.6627" stroke="black" stroke-miterlimit="1.5" stroke-linecap="round" stroke-linejoin="round"/>
<path d="M130.032 59.592C131.76 60.24 133.116 61.2 134.1 62.472C135.108 63.72 135.612 65.124 135.612 66.684C135.612 68.196 134.952 69.624 133.632 70.968C132.336 72.288 130.716 73.344 128.772 74.136C126.828 74.928 124.968 75.324 123.192 75.324C121.992 75.324 120.816 75.264 119.664 75.144C117.744 75.024 116.256 74.964 115.2 74.964H109.728V72.948L113.112 70.284V50.052L109.116 49.008L110.304 46.668H115.164C117.348 46.668 119.496 46.596 121.608 46.452C123.24 46.356 124.44 46.308 125.208 46.308C126.984 46.308 128.544 46.62 129.888 47.244C131.256 47.868 132.312 48.72 133.056 49.8C133.8 50.856 134.172 52.044 134.172 53.364C134.172 54.54 133.788 55.668 133.02 56.748C132.276 57.828 131.28 58.788 130.032 59.628V59.592ZM127.26 55.272C127.26 53.544 126.852 52.152 126.036 51.096C125.22 50.04 124.008 49.512 122.4 49.512C121.416 49.512 120.492 49.716 119.628 50.124V59.376H123.66C124.836 59.376 125.724 59.028 126.324 58.332C126.948 57.636 127.26 56.616 127.26 55.272ZM124.236 71.76C125.628 71.76 126.72 71.4 127.512 70.68C128.328 69.96 128.736 68.976 128.736 67.728C128.736 66.096 128.28 64.764 127.368 63.732C126.48 62.676 125.148 62.1 123.372 62.004H122.652H119.628V70.968C120.996 71.496 122.52 71.76 124.2 71.76H124.236ZM161.097 75.036H138.345V73.02L141.729 70.356V50.232L137.733 49.044L138.921 46.704H160.737L163.329 46.056V55.236L161.349 56.028L156.921 49.44H148.245V59.16H152.529L155.157 55.128H157.173V65.604L154.833 66.792L152.493 61.932H148.245V72.264H156.633L161.709 64.92L163.689 65.748V75.684L161.097 75.036ZM198.152 75H184.76V72.984L188.684 70.644L186.488 65.28H175.364L173.384 70.104L178.892 72.66L177.74 75H166.112V72.984L170 70.068L179.216 47.856L185.444 46.02L195.668 70.824L199.34 72.66L198.152 75ZM180.98 51.708L176.516 62.508H185.372L180.98 51.708ZM223.642 51.672L214.426 73.848L208.234 75.684L198.01 50.88L194.338 49.044L195.49 46.704H208.918V48.72L204.994 51.06L212.734 69.996L220.33 51.636L214.822 49.044L215.974 46.704H227.602L227.566 48.72L223.642 51.672ZM252.082 75.036H229.33V73.02L232.714 70.356V50.232L228.718 49.044L229.906 46.704H251.722L254.314 46.056V55.236L252.334 56.028L247.906 49.44H239.23V59.16H243.514L246.142 55.128H248.158V65.604L245.818 66.792L243.478 61.932H239.23V72.264H247.618L252.694 64.92L254.674 65.748V75.684L252.082 75.036ZM286.725 75H278.913L271.965 62.544L270.381 61.572L271.281 59.808H272.937C274.233 59.808 275.253 59.412 275.997 58.62C276.741 57.828 277.113 56.712 277.113 55.272C277.113 53.592 276.657 52.224 275.745 51.168C274.857 50.088 273.549 49.548 271.821 49.548C270.741 49.548 269.733 49.884 268.797 50.556V71.544L272.793 72.696L271.641 75.036H258.897V73.02L262.281 70.176V50.196L258.285 49.08L259.473 46.74H265.449C267.537 46.74 269.589 46.668 271.605 46.524C273.045 46.428 274.125 46.38 274.845 46.38C276.693 46.38 278.325 46.716 279.741 47.388C281.181 48.036 282.285 48.924 283.053 50.052C283.845 51.18 284.241 52.44 284.241 53.832C284.241 55.512 283.497 57.072 282.009 58.512C280.521 59.952 278.709 61.032 276.573 61.752L279.453 62.58L284.133 70.932L287.877 72.66L286.725 75ZM314.408 69.06C314.408 68.34 314.12 67.656 313.544 67.008C312.992 66.36 312.284 65.76 311.42 65.208C310.556 64.656 309.404 63.984 307.964 63.192C306.188 62.208 304.736 61.344 303.608 60.6C302.504 59.856 301.568 58.992 300.8 58.008C300.032 57.024 299.648 55.944 299.648 54.768C299.648 53.568 300.2 52.284 301.304 50.916C302.408 49.524 303.752 48.36 305.336 47.424C306.944 46.464 308.42 45.984 309.764 45.984C311.372 45.984 313.256 46.164 315.416 46.524C317.576 46.884 319.16 47.268 320.168 47.676V55.56H316.784C315.776 53.616 314.66 52.104 313.436 51.024C312.236 49.944 310.964 49.404 309.62 49.404C308.66 49.404 307.904 49.716 307.352 50.34C306.8 50.94 306.524 51.708 306.524 52.644C306.524 53.412 306.812 54.144 307.388 54.84C307.988 55.512 308.72 56.136 309.584 56.712C310.472 57.264 311.66 57.948 313.148 58.764C314.9 59.724 316.316 60.564 317.396 61.284C318.476 62.004 319.388 62.844 320.132 63.804C320.876 64.764 321.248 65.82 321.248 66.972C321.248 68.172 320.66 69.468 319.484 70.86C318.308 72.228 316.868 73.392 315.164 74.352C313.484 75.288 311.948 75.756 310.556 75.756C308.876 75.756 306.86 75.576 304.508 75.216C302.18 74.856 300.5 74.472 299.468 74.064V66.18H302.852C303.908 68.124 305.132 69.636 306.524 70.716C307.916 71.796 309.32 72.336 310.736 72.336C311.84 72.336 312.728 72.024 313.4 71.4C314.072 70.752 314.408 69.972 314.408 69.06ZM337.347 74.964H324.603V72.948L327.987 70.104V50.16L323.991 49.008L325.179 46.668H337.923V48.684L334.503 51.564V71.508L338.499 72.624L337.347 74.964ZM368.409 55.956L366.429 56.748L361.353 49.44H358.005V71.616L362.037 72.66L360.849 75H348.105V72.984L351.489 70.32V49.44H348.285L343.209 56.748L341.229 55.956V46.056L343.821 46.704H365.817L368.409 46.056V55.956ZM394.5 75.036H371.748V73.02L375.132 70.356V50.232L371.136 49.044L372.324 46.704H394.14L396.732 46.056V55.236L394.752 56.028L390.324 49.44H381.648V59.16H385.932L388.56 55.128H390.576V65.604L388.236 66.792L385.896 61.932H381.648V72.264H390.036L395.112 64.92L397.092 65.748V75.684L394.5 75.036Z" fill="#F6CB4E"/>
</svg>
