<svg width="215" height="120" viewBox="0 0 215 120" fill="none" xmlns="http://www.w3.org/2000/svg">
<path d="M93.7 75.144H80.956V73.128L84.34 70.464V53.184L75.412 75.108H72.28L63.208 53.004V71.148L67.204 72.732L66.052 75.072H56.728V73.056L60.112 70.392V50.772L56.116 49.08L57.304 46.74H67.42L75.628 66.756L83.764 46.74H94.276V48.756L90.856 51.42V71.616L94.852 72.804L93.7 75.144ZM118.312 75H110.104V71.868L106.036 75.072C105.556 75.264 104.956 75.36 104.236 75.36C101.932 75.36 100.264 74.796 99.2322 73.668C98.2242 72.54 97.7202 71.184 97.7202 69.6C97.7202 68.664 98.0082 67.752 98.5842 66.864C99.1602 65.952 99.9882 65.112 101.068 64.344H110.104V63.732C110.104 62.412 109.744 61.44 109.024 60.816C108.304 60.192 107.344 59.88 106.144 59.88C104.464 59.88 102.268 60.54 99.5562 61.86L98.4762 59.808L103.48 55.776C104.704 55.416 106.132 55.236 107.764 55.236C110.452 55.236 112.528 55.848 113.992 57.072C115.48 58.296 116.224 60.072 116.224 62.4V71.4L119.464 72.66L118.312 75ZM106.072 70.536C107.296 70.536 108.64 70.032 110.104 69.024V66.72H104.308C104.116 67.008 103.972 67.284 103.876 67.548C103.804 67.788 103.768 68.064 103.768 68.376C103.768 68.976 103.972 69.48 104.38 69.888C104.812 70.296 105.376 70.5 106.072 70.5V70.536ZM133.398 60.348C132.534 60.348 131.67 60.732 130.806 61.5V71.22L136.278 72.66L135.126 75H121.482V72.984L124.686 70.284V62.112L121.482 60.096V58.08L128.97 54.912L130.338 58.908L133.614 55.524C134.118 55.332 134.706 55.236 135.378 55.236C136.626 55.236 137.694 55.524 138.582 56.1C139.494 56.676 140.13 57.468 140.49 58.476L137.034 62.796H134.766C134.742 61.932 134.622 61.32 134.406 60.96C134.19 60.576 133.854 60.384 133.398 60.384V60.348ZM153.822 72.66L152.634 75H141.258V72.984L144.462 70.284V50.592L141.258 48.468V46.452L148.314 43.572H150.582V71.58L153.822 72.66ZM165.306 74.964H157.854L151.986 65.316L158.322 60.276L153.93 57.9L155.082 55.56H165.486V57.576L158.034 63.696L162.894 71.256L166.458 72.624L165.306 74.964ZM180.445 55.236C182.965 55.236 184.909 56.196 186.277 58.116C187.669 60.036 188.341 62.7 188.293 66.108H175.333C175.573 67.572 176.089 68.748 176.881 69.636C177.673 70.5 178.705 70.932 179.977 70.932C181.657 70.932 184.069 70.092 187.213 68.412L188.293 70.464L182.821 74.82C181.405 75.18 179.761 75.36 177.889 75.36C176.137 75.36 174.553 74.952 173.137 74.136C171.745 73.296 170.653 72.156 169.861 70.716C169.093 69.276 168.709 67.68 168.709 65.928C168.709 64.032 169.321 62.268 170.545 60.636C171.769 58.98 173.293 57.672 175.117 56.712C176.965 55.728 178.741 55.236 180.445 55.236ZM178.465 59.412C177.409 59.412 176.617 59.772 176.089 60.492C175.561 61.188 175.273 62.268 175.225 63.732H182.101C181.909 62.244 181.549 61.152 181.021 60.456C180.517 59.76 179.653 59.412 178.429 59.412H178.465ZM204.102 75.072C203.286 75.264 202.314 75.36 201.186 75.36C198.882 75.36 197.19 74.844 196.11 73.812C195.054 72.756 194.526 71.136 194.526 68.952V59.052H190.638V57.144L198.378 48.72H200.646V56.676H207.126V59.052H200.646V68.7C200.646 70.356 201.582 71.184 203.454 71.184C203.934 71.184 204.402 71.112 204.858 70.968C205.338 70.8 205.938 70.524 206.658 70.14L207.738 72.192L204.102 75.072Z" fill="white"/>
<path d="M48.5091 40.5064C47.9084 39.7851 47.1562 39.205 46.3062 38.8073C45.4561 38.4096 44.5289 38.204 43.5905 38.2051H9.05982L8.97011 37.4551C8.78654 35.8962 8.03762 34.4588 6.86532 33.4156C5.69302 32.3723 4.17885 31.7956 2.60988 31.7949H2.13574C1.56931 31.7949 1.02607 32.02 0.625544 32.4207C0.225015 32.8214 0 33.3649 0 33.9316C0 34.4983 0.225015 35.0418 0.625544 35.4425C1.02607 35.8433 1.56931 36.0684 2.13574 36.0684H2.60988C3.13299 36.0684 3.63789 36.2606 4.0288 36.6084C4.41972 36.9561 4.66946 37.4354 4.73067 37.9551L7.66945 62.9551C7.97454 65.5551 9.22315 67.9525 11.1783 69.6923C13.1334 71.4321 15.6589 72.3932 18.2755 72.3932H40.5791C41.1455 72.3932 41.6888 72.168 42.0893 71.7673C42.4898 71.3666 42.7148 70.8231 42.7148 70.2564C42.7148 69.6897 42.4898 69.1462 42.0893 68.7455C41.6888 68.3448 41.1455 68.1197 40.5791 68.1197H18.2755C16.9536 68.1159 15.6652 67.7032 14.587 66.9382C13.5087 66.1731 12.6934 65.0931 12.2528 63.8461H37.7108C40.2145 63.8463 42.6387 62.9663 44.5597 61.3599C46.4808 59.7535 47.7766 57.5229 48.2208 55.0577L49.8973 45.7543C50.0647 44.8312 50.0271 43.8826 49.7872 42.9757C49.5473 42.0688 49.1109 41.2258 48.5091 40.5064ZM45.7049 44.9957L44.0262 54.2991C43.7595 55.7799 42.9807 57.1196 41.8261 58.0838C40.6715 59.0479 39.2147 59.5749 37.7108 59.5726H11.5736L9.56385 42.4786H43.5905C43.9042 42.4768 44.2145 42.5441 44.4993 42.6758C44.7841 42.8075 45.0364 43.0003 45.2383 43.2406C45.4401 43.4809 45.5866 43.7628 45.6672 44.0661C45.7479 44.3694 45.7607 44.6868 45.7049 44.9957Z" fill="white"/>
<path d="M14.9502 83.0769C17.3093 83.0769 19.2217 81.1636 19.2217 78.8034C19.2217 76.4432 17.3093 74.5299 14.9502 74.5299C12.5911 74.5299 10.6787 76.4432 10.6787 78.8034C10.6787 81.1636 12.5911 83.0769 14.9502 83.0769Z" fill="white"/>
<path d="M36.3076 83.0769C38.6667 83.0769 40.5791 81.1636 40.5791 78.8034C40.5791 76.4432 38.6667 74.5299 36.3076 74.5299C33.9485 74.5299 32.0361 76.4432 32.0361 78.8034C32.0361 81.1636 33.9485 83.0769 36.3076 83.0769Z" fill="white"/>
</svg>
