<svg width="36" height="37" viewBox="0 0 36 37" fill="none" xmlns="http://www.w3.org/2000/svg">
<path d="M35.5793 34.3949L26.6331 25.2194C29.0711 22.1612 30.2697 18.2591 29.9811 14.3199C29.6926 10.3808 27.9389 6.70615 25.0828 4.05601C22.2267 1.40586 18.4867 -0.0169983 14.6364 0.0817388C10.7862 0.180476 7.12022 1.79325 4.39682 4.58648C1.67342 7.37971 0.100964 11.1397 0.00469503 15.0887C-0.0915736 19.0377 1.29571 22.8735 3.87961 25.8029C6.4635 28.7322 10.0463 30.5308 13.8869 30.8268C17.7276 31.1228 21.5322 29.8934 24.5139 27.393L33.46 36.5685C33.7427 36.8485 34.1213 37.0034 34.5143 36.9999C34.9072 36.9964 35.2831 36.8348 35.561 36.5498C35.8389 36.2648 35.9965 35.8792 35.9999 35.4762C36.0034 35.0731 35.8523 34.6848 35.5793 34.3949ZM15.0357 27.7957C12.6642 27.7957 10.3461 27.0745 8.37429 25.7232C6.40252 24.3719 4.86571 22.4513 3.95821 20.2042C3.0507 17.9571 2.81325 15.4845 3.2759 13.099C3.73854 10.7135 4.88049 8.52225 6.55734 6.8024C8.23419 5.08255 10.3706 3.91132 12.6965 3.43682C15.0224 2.96231 17.4332 3.20585 19.6241 4.13662C21.815 5.0674 23.6876 6.64361 25.0051 8.66594C26.3226 10.6883 27.0258 13.0659 27.0258 15.4981C27.0222 18.7585 25.7578 21.8843 23.51 24.1898C21.2622 26.4952 18.2145 27.792 15.0357 27.7957Z" fill="black"/>
</svg>
