<svg width="51" height="42" viewBox="0 0 51 42" fill="none" xmlns="http://www.w3.org/2000/svg">
<path d="M11.5159 31.9345C13.2505 31.9345 14.6567 30.4038 14.6567 28.5157C14.6567 26.6275 13.2505 25.0969 11.5159 25.0969C9.78138 25.0969 8.37524 26.6275 8.37524 28.5157C8.37524 30.4038 9.78138 31.9345 11.5159 31.9345Z" fill="white"/>
<path d="M39.7822 0.0256424H10.469C7.69348 0.0292614 5.03257 1.23107 3.06997 3.36745C1.10737 5.50384 0.00332466 8.40036 0 11.4217L0 29.6553C0.00332466 32.6766 1.10737 35.5731 3.06997 37.7095C5.03257 39.8459 7.69348 41.0477 10.469 41.0513H39.7822C42.5578 41.0477 45.2187 39.8459 47.1813 37.7095C49.1439 35.5731 50.2479 32.6766 50.2513 29.6553V11.4217C50.2479 8.40036 49.1439 5.50384 47.1813 3.36745C45.2187 1.23107 42.5578 0.0292614 39.7822 0.0256424ZM10.469 4.58405H39.7822C41.4482 4.58405 43.0459 5.30444 44.2239 6.58674C45.4019 7.86904 46.0636 9.60821 46.0636 11.4217H4.1876C4.1876 9.60821 4.84939 7.86904 6.02739 6.58674C7.20538 5.30444 8.80308 4.58405 10.469 4.58405ZM39.7822 36.4929H10.469C8.80308 36.4929 7.20538 35.7725 6.02739 34.4902C4.84939 33.2079 4.1876 31.4687 4.1876 29.6553V15.9801H46.0636V29.6553C46.0636 31.4687 45.4019 33.2079 44.2239 34.4902C43.0459 35.7725 41.4482 36.4929 39.7822 36.4929Z" fill="white"/>
</svg>
